<?xml version="1.0" encoding="UTF-8"?>
<svg id="Layer_1" data-name="Layer 1" xmlns="http://www.w3.org/2000/svg" viewBox="0 0 1920 1080">
  <defs>
    <style>
      .cls-1 {
        fill: none;
      }

      .cls-2 {
        fill: #dededd;
      }

      .cls-3 {
        fill: #fff;
      }
    </style>
  </defs>
  <g>
    <path class="cls-2" d="M1567.48,518.07c.14,8.09.59,16.11,1.59,24.06.86,6.83,2.75,13.54,3.44,20.37.84,8.26-1.5,10.94-9.88,11.17-1.08.03-2.15.04-3.23.04-6.98,0-13.98-.56-20.97-.67-2.91-.05-4.3-1.61-5.21-3.99-.59-1.55-1.04-3.16-1.68-4.69-2.5-5.95-6.62-9.57-13.05-9.57-.41,0-.84.01-1.28.05-.53.04-1.06.06-1.59.06-3.6,0-6.97-.9-9.97-2.9-1.49-1-2.92-1.43-4.32-1.43-1.69,0-3.32.64-4.97,1.7-4.1,2.64-8.52,3.34-13.07,3.34-1.6,0-3.22-.09-4.84-.21-1.66-.12-3.33-.58-4.97-.58-.23,0-.47,0-.7.03-.65.06-1.29.09-1.9.09-8.19,0-13.42-5.04-17.98-11.38-.94-1.31-2.04-2.5-3.1-3.72,1.39,2.71,2.84,5.38,4.11,8.14.19.4-.46,1.18-.81,1.83.03,0,.06,0,.08-.01,3.87,5.4,9.89,6.07,15.71,6.75,4.73.55,9.54.33,14.31.61.73.04,1.45.06,2.17.06,4.31,0,8.42-.8,12.41-2.8,1.26-.64,3.04-1.23,4.49-1.23.57,0,1.09.09,1.5.31,5.3,2.77,10.81,3.14,16.61,3.44,7.52.4,13.16,11.94,9.38,18.42-3.62,6.22-5.86,12.54-2.17,19.54,1.9,3.61-.19,6.04-2.74,7.89-3.29,2.39-3.63,5.33-2.66,8.83,1.41,5.04,3.09,10.03,4.14,15.14.84,4.09,2.08,7.75,5.11,10.74,1.14,1.13,1.95,2.61,2.83,3.83-2.99,4.74-6.18,6.96-10.53,6.96-1.96,0-4.16-.45-6.69-1.33-3.74-1.3-7.34-3-11.82-4.86,6.66,5.07,12.18,7.58,17.61,7.58,4.67,0,9.28-1.86,14.49-5.53,1.12,2.68,2.48,5.13,3.16,7.75,1.5,5.75,2.84,11.56,3.9,17.41.8,4.44,1.4,8.97,1.49,13.47.16,8.07-.95,16.23-.05,24.19,1.19,10.53-8.69,22.28-17.89,23.97-7.94,1.46-15.69,3.88-23.54,5.85-1.07.27-2.2.32-2.89.42-5.5-7.85-10.67-15.22-16.01-22.85,3.04-3.5,5.76-6.64,9.25-10.66-2.89-1.22-5.02-1.96-7.01-2.98-4.33-2.23-9.84-2.28-12.89-6.9-.44.82-.88,1.63-1.32,2.45-1.1-.66-2.93-1.12-3.18-2.01-.92-3.3-1.31-6.74-1.9-10.13.44-.19.88-.38,1.32-.58,1.6,2.56,3.21,5.11,4.81,7.67-2.57-10.13-5.49-16.7-8.64-18.67.51,7.53,1,14.74,1.47,21.54-.57.29-1.15.39-1.72.39-.5,0-1-.07-1.48-.15-.48-.07-.95-.15-1.39-.15-1.02,0-1.93.39-2.61,2.09,1.13.67,2.2,1.58,3.45,1.99,4.66,1.56,6.88,4.69,7.05,9.58.17,4.98.61,9.95.96,14.93.11,1.52.3,3.02.45,4.53.43.16.87.32,1.31.48,1.69-2.38,3.38-4.76,5.07-7.14,1.72-1.36,3.46-2.74,5.75-4.56,5.05,8.5,10.51,15.86,12.39,25.1-.67.54-1.21.99-1.76,1.43-5.75,4.55-5.91,5.09-2.75,11.92,1.2,2.59,2.67,5.06,3.88,7.64,4.25,9.04,9.07,17.92,8.94,28.34-.08,6.43-.13,12.86-.25,19.29-.19,10.6-6.88,16.92-15.1,21.85-1.48.89-2.78,1.31-3.96,1.31-2.26,0-4.14-1.53-6.18-4.27-2.25-3.03-4.59-6.29-7.63-8.38-6.63-4.56-13.73-8.44-20.64-12.59,3.74,5.88,10.02,8.38,15.68,11.67,4.55,2.65,8.66,5.62,11.12,11.22-.35.04-.68.05-1.01.05-5.26,0-8.37-4.3-12.71-5.3,4.32,2.79,8.72,5.52,13.02,8.4,1.91,1.28,4.28,2.51,5.32,4.38,10.34,18.5,20.97,36.96,26.72,57.5,2.96,10.56,7.95,19.2,16.4,26.05,1.28,1.04,2.04,2.7,3.97,5.35-3.52,0-6.51.14-9.25.14-2.01,0-3.89-.08-5.74-.34-1.86-.27-3.77-2.47-5.02-4.24-3.78-5.32-7.26-10.86-10.85-16.32-.38.23-.77.46-1.15.69,1.21,2.39,2.42,4.78,3.65,7.19-.91.31-1.62.55-2.7.92,2.32,1.59,4.8,2.55,6.04,4.37,1.31,1.91,1.31,4.68,2.15,6.98.39,1.06,1.49,1.84,2.11,2.85.99,1.61,2.06,3.22,2.74,4.97,4.3,11.06,8.62,22.13,12.72,33.26,4.63,12.57,10.95,24.28,17.8,35.73,1.81,3.03,3.95,6.11,6.61,8.36,10.78,9.12,20.48,19.23,29.52,30.04,2.45,2.93,5.58,5.3,8.4,7.93.53-.56,1.06-1.12,1.59-1.68-2.84-2.42-5.91-4.63-8.49-7.3-9.58-9.93-19.04-19.98-28.46-30.06-2.75-2.94-5.69-5.85-7.75-9.25-11.04-18.16-19.76-37.43-26.67-57.51-1.4-4.07-2.67-8.2-4.24-13.04,4.03.91,6.78,1.53,9.52,2.15-.05-.05-.1-.1-.15-.15,2.04,1.07,4.06,2.93,6.1,2.94,6.09.04,9.28,3.76,12.36,8.1,1.92,2.7,4.05,5.26,6.24,7.75.97,1.1,2.32,1.85,4.19,3.3.4-4.01.69-7.01.99-10.01,1.09-1.54,2.41-2.38,4.04-2.38.65,0,1.34.13,2.08.41-2.19-1.57-3.71-3.48-3.23-6.39-.03,0-.07,0-.1,0,1.12-2.35,2.25-4.7,3.69-7.74,2.45,3.23,4.37,5.77,6.28,8.3-.03-.47.08-1.02-.12-1.4-1.57-2.94-4.15-5.72-4.54-8.78-.4-3.13,1.34-6.53,2.3-10.42-1.54.4-2.83.61-4.02,1.08-5.63,2.2-11.25,4.44-16.85,6.71-1.38.56-2.63.81-3.78.81-4.04,0-6.78-3.08-9.23-6.41-2.67-3.63-4.71-7.73-7.21-11.5-.64-.97-2.04-2.36-2.83-2.36-.05,0-.1,0-.15.02-.63.17-1.17.24-1.63.24-2.94,0-3.07-2.98-3.79-5.09-1.77-5.18-2.68-10.71-4.98-15.62-6.84-14.66-14.19-29.08-21.32-43.6-.79-1.6-1.41-3.28-2.13-4.97,14.17-4.07,23.22-15.19,22.63-29.63-.17-4.28.34-8.61-.05-12.86-.47-5.16-.8-10.54-2.54-15.34-3-8.25-7.05-16.11-10.66-24.14-1.08-2.4-2.37-4.78.17-7.16,1.38-1.29,2.74-1.97,4.12-1.97,1.27,0,2.55.58,3.87,1.78.03.02.07.04.12.04.27,0,.89-.33,1.66-.58.32-1.97.67-4.16,1.11-6.89,7.71-1.89,15.33-3.71,22.92-5.64,13.53-3.44,18.18-7.47,19.52-20.01,1.25-11.76.31-23.77.13-35.66-.04-2.82-.79-5.65-1.33-8.45-.59-3.04-1.25-6.06-1.99-9.07-1.51-6.17-1.19-12.93-5.82-18.09,1.47-6.22,3.11-12.4,4.35-18.66,1.18-5.93-.39-11.34-4.14-16.1-1.18-1.5-2.38-2.98-3.64-4.41-2.11-2.37-2.98-4.71-.83-7.65,3.18-4.36,3.35-9.24,2.11-14.35-.47-1.95-.4-4.02-.61-6.54,3.05.15,5.39.24,7.74.39,5.46.35,10.92.84,16.38,1.08.62.03,1.21.04,1.78.04,12.72,0,14.44-6.59,12.19-17.23-1.63-7.67-2.64-15.47-4.09-23.18-.58-3.07.61-4.16,3.1-4.17-5.62-2.76-2.97-8.89-5.12-13.18M1527.43,587.08c0-2.93,1.69-6.15,5.23-10.77.91,3.02,1.48,5.82,1.47,8.47,0,3.41-.95,6.56-3.29,9.63-2.25-2.67-3.41-4.9-3.42-7.33M1523.72,610.41c0-3.11,1.94-5.05,6.68-8.58,7.11,4.92,10.38,11.17,10.4,18.76.01,5.36-1.6,11.38-4.63,18.07-3.76-2.19-5.64-4.9-6.6-8.56-1.09-4.13-2.46-8.21-3.94-12.22-1.21-3.3-1.91-5.59-1.91-7.46M1474.01,699.68h.04c3.14.02,4.84,2.08,6.55,4.09.05.06.1.12.15.17.02-.04.05-.08.07-.13.02-.04.05-.08.07-.13.02-.04.05-.08.07-.13.05-.1.11-.2.16-.3.04-.08.09-.16.13-.24.36-.68.71-1.35.87-1.35,0,0,0,0,.01,0,2.36.68,4.65,1.62,8.43,3.04l-.1.05c-.08.04-.15.08-.23.13-.29.17-.54.38-.77.6,0,0,0,0,0,0-.05.05-.11.11-.16.16-1.54,1.67-1.84,4.24-3.71,4.26h-.02s-.08,0-.13,0c-.56-.03-1.27-.29-2.18-.85,0,0-.01,0-.02-.01-.01,0-.03-.02-.04-.02-.1-.06-.2-.13-.31-.2-.32,0-.68.06-1.04.11-.22.03-.44.06-.64.07-.06,0-.11,0-.16,0h-.03c-.29,0-.54-.05-.69-.2-2.83-2.64-5.49-5.46-8.75-8.78.06-.02.13-.03.19-.05.04,0,.09-.02.13-.03.76-.18,1.44-.27,2.07-.27h.03M1472.62,704.03h0c4.02,3.87,6.81,6.54,9.69,9.3-1.49,2.81-2.66,5.03-3.83,7.23.04,0,.07-.01.11-.02l-.21.21c.03-.06.07-.13.1-.19-1.1.22-2.21.44-3.78.76-.64-5.34-1.25-10.38-2.08-17.29M1551.62,936.83c-.46,0-.87-.07-1.19-.29-3.88-2.58-7.48-5.6-12.09-9.15,6.11-1.97,11.11-3.58,16.38-5.27,3.83,5.15-.35,9.75-.11,14.34-.97.08-2.08.37-3,.37M1548.97,948.92c-7.07-5.24-10.95-12.16-14.98-18.97.37-.42.75-.84,1.12-1.25,5.01,3.32,10.01,6.67,15.03,9.96,2.52,1.65,1.85,4.05,1.65,6.35-.87,1.2-1.74,2.41-2.82,3.91M1522.03,932.68c-.59-.61-1.18-1.21-1.75-1.81,2.44-1.19,4.4-1.83,6.08-1.83,2.66,0,4.65,1.6,6.82,5.21-4.26-.6-7.71-1.1-11.15-1.58M1572.64,531.25s-.02,0-.04,0c.17.08.35.16.54.24l.2-.21h0c-.25-.02-.48-.03-.7-.03M1449.48,539.21h0l-.09.11h0s-.01.02-.01.02c.14.17.28.34.43.5-.11-.21-.21-.42-.32-.63"/>
    <path class="cls-2" d="M1336.03,726.92c-.19.02-.38.05-.57.07.64,8.88,1.28,17.76,1.98,27.45-2.24-.59-3.48-.91-4.72-1.24.8,1.1,1.6,2.19,2.43,3.32-.07.04-.14.08-.21.12-.14.08-.27.15-.4.22-.1.05-.19.11-.29.16-.05.03-.1.06-.15.08-1.47.8-2.47,1.28-3.28,1.3-.02,0-.03,0-.05,0h-.04c-1.31-.02-2.13-1.29-3.69-4.35-.01-.03-.03-.05-.04-.08-.24-.47-.5-.99-.78-1.54.69,2.39,1.39,4.8,2.06,7.12-7.82,5.51-16.7,4.53-25.02,6.16,3.57,1.06,7.05,1.54,10.55,1.69.77.03,1.51.08,2.25.08,2.21,0,4.32-.37,6.53-2.35,1.39-1.25,3.6-3.08,6-3.08,1.33,0,2.71.56,4.05,2.09,0-.08,0-.15,0-.23,0-3.04,1.73-4.03,4.69-4.05h.12c.09,0,.19,0,.29,0,.12,0,.25,0,.38.01.68,3.06,1.38,6.17,2.31,10.31-2.73-1.04-4.22-1.61-5.72-2.2,1.37,1.5.74,4.02,3.42,5.18,1.82.79,3.37,3.36,4.02,5.45,2.17,6.96,3.97,14.04,5.74,21.12.66,2.64.87,5.4,1.47,9.24,3.17-1.82,5.51-3.17,7.85-4.51-1.82.22-3.64.43-5.67.67-1.81-7.05-3.52-13.73-5.4-21.06,1.59.38,2.44.58,3.21.76-1.13-1.76-2.27-3.52-3.4-5.28-.58-.9-1.33-1.83-.54-2.49.17-.15.43-.29.78-.41-2.96-3.21-4.8-6.81-4.81-11.22,0-.87.07-1.78.21-2.71,1.2,0,2.43,0,3.66,0,0,0-.01-.01-.02-.02l.28.02c-1.16-1.36-2.33-2.72-3.65-4.26,9.17-4.76,17.87-9.27,26.6-13.8,2.23,1.7,2.78,3.62,2.77,5.61,0,1.2-.2,2.42-.36,3.64-.81,6.33-1.54,12.66-2.29,19,1.25-5.35,2.55-10.69,3.68-16.07.54-2.55.96-5.19.91-7.78-.08-4.27-1.81-6.54-4.74-6.54-1.19,0-2.57.37-4.13,1.14-2.96,1.46-5.68,3.43-8.5,5.17-4.57,2.83-9.11,5.76-15.69,6.18-1.39-9.62-2.73-18.87-4.06-28.12"/>
    <path class="cls-2" d="M1404.19,256.51l-.15.15c.1.05.2.1.3.15-.05-.1-.1-.2-.15-.3M1404.34,256.81c3.55,7.05,10.42,9.47,17.27,10.49,14.76,2.2,28,19.14,28.78,33.42.68,12.57,2.73,25.08,6.59,37.22,1.21,3.81,1.74,7.94,1.95,11.96.52,9.75.96,19.53.86,29.28-.06,5.9-.94,11.82-1.87,17.67-1,6.3-2.49,12.52-3.77,18.78,3.5-8.6,5.93-17.44,8.24-26.31.35-1.35.26-2.84.23-4.27-.2-9.05-.19-18.1-.75-27.13-.42-6.87-.51-14.06-2.63-20.48-4.32-13.05-5.73-26.49-7.55-39.94-2.27-16.67-14.7-29.79-30.93-33.53-4.3-.99-8.29-3.36-12.39-5.15-1.37-.6-2.68-1.34-4.01-2.02"/>
    <path class="cls-2" d="M1284.7,554.53c-2.18,0-4.5.42-6.91,1.27-5.1,1.81-9.95,4.46-14.69,7.1-8.06,4.5-15.5,10.16-24.77,12.31-1.99.46-4.08,1.64-5.52,3.08-4.74,4.76-9.2,9.8-13.77,14.74,2.09-.56,3.67-1.63,4.82-3.05,6.27-7.71,13.06-14.55,23.59-16.05,1.34-.19,2.59-1.17,3.83-1.88,5.57-3.22,10.94-6.82,16.72-9.6,4.86-2.34,10.11-3.97,15.31-5.49.97-.28,1.89-.41,2.76-.41,3.67,0,6.54,2.31,8.92,5.4,4.43,5.77,6.01,12.46,5.08,19.49-.5,3.74.15,6.41,2.94,8.86,1.6,1.4,2.69,3.37,4.27,4.8,2.55,2.29,3.12,4.92,2.97,8.3-.21,4.89.36,9.81.6,14.71,2.29-5.57-.63-11.74,3.41-16.93.32-.41-.52-1.69-.78-2.58-.52-1.83-1.01-3.66-1.52-5.5-2.83-10.3-5.66-20.59-8.49-30.89-.39.1-.79.19-1.18.28,2.33,9.85,4.65,19.7,7.3,30.91-6.31-5.52-7.13-6.21-6.62-9.64.92-6.2-1.02-11.78-3.02-17.35-2.75-7.65-8.3-11.88-15.25-11.88"/>
    <path class="cls-2" d="M1351.44,320.05c-2.49,8.43-4.23,16.53-7.31,24.08-2.82,6.91-5.34,13.68-5.4,21.22-.05,6.89-.22,13.78-.5,20.67-.13,3.01-1.77,6.41-.83,8.92,3.32,8.86,7.38,17.46,11.36,26.06.64,1.38,2.16,2.86,3.56,3.23.12.03.24.05.37.05,1.08,0,2.47-1.09,3.75-1.63-9.7-7.97-12.29-12.28-14.16-24.63-.79-5.16-1.23-10.39-1.49-15.61-.62-12.71.45-24.97,6.34-36.8,2.98-5.99,3.42-13.27,4.77-20.02.33-1.64-.25-3.46-.44-5.55"/>
    <path class="cls-2" d="M1553.77,732.33c-.16.49-.32.99-.48,1.48,8.51,1.45,15.32,7.76,24.45,7.76.15,0,.3,0,.45,0,.02,0,.04,0,.07,0,1.94,0,4.43,1.84,5.76,3.53,12.24,15.56,24.15,31.35,29.45,50.95,1.01,3.74,2.58,7.33,3.89,10.98.54-.17,1.08-.34,1.62-.51-.45-1.94-.8-3.91-1.37-5.81-6.43-21.6-17.86-40.43-32.26-57.54-1.65-1.96-4.72-3.77-7.15-3.8-5.48-.06-10.21-2.05-15.11-3.9-3.07-1.15-6.22-2.1-9.33-3.14"/>
    <path class="cls-2" d="M1416.49,488.42c-2.08,4.29-3.45,8.89-5.64,13.06-2.19,4.18-5.35,7.84-7.79,11.9-1.2,2-2.13,4.33-2.52,6.62-2.68,15.81-3.18,31.77-1.5,47.65.53,4.94.95,10.77,5.69,14.42-1.35-6.18-3.42-12.32-3.81-18.56-.64-10.17-.26-20.42-.1-30.63.13-8.29,2.37-15.85,7.7-22.51,5.09-6.36,6.78-14.11,7.96-21.94M1404.75,582.06c.02.08.03.16.05.23l.11-.11c-.05-.04-.11-.08-.16-.12"/>
    <path class="cls-3" d="M1312.84,631.24h-.13c-2.5.01-5.02.35-7.53.68-.12.01-.24.03-.36.05-.1.01-.2.03-.3.04-.07,0-.13.02-.2.03-.99.12-1.79,1.77-2.68,2.71.67.18,1.34.36,2,.54,2.13,1.26,4.34,2.4,6.36,3.81.96.67,1.59,1.8,2.35,2.75,2.41,1.46,4.83,2.91,7.24,4.37l-.25-.17c2.17.58,4.35,1.15,6.52,1.74.11.03.22.06.33.08.35.08.69.13,1,.13.01,0,.03,0,.04,0,.03,0,.07,0,.1,0,.96-.03,1.69-.5,2.05-1.73.01-.04.02-.08.03-.11.01-.06.03-.11.04-.17-1.43-2.61-2.87-5.23-4.3-7.84-1.16-1.61-2.31-3.22-3.47-4.83-.16-.09-.32-.17-.48-.25-2.71-1.37-5.51-1.81-8.33-1.81h-.05M1329.47,645.97s0,0,0,.01c0,0,0,0,0-.01"/>
    <path class="cls-2" d="M1362.17,491.17c-1.01,13.68-2.35,32.37-3.79,51.06-.78,10.18-1.78,20.34-2.54,30.52-.25,3.34-.04,6.71-.04,10.06,1.47-.6,1.89-1.21,1.86-1.81-.8-13.35.67-26.52,2.8-39.68,1.32-8.19,2.6-16.47,2.76-24.73.19-10.16-.81-20.34-1.06-25.42"/>
    <path class="cls-2" d="M1346.92,626.71c-.41,0-.81.05-1.19.17-5.03,1.61-10.19,2.46-15.33,2.46-2.43,0-4.86-.19-7.26-.59-1.59-.26-3.16-.36-4.71-.36-4.67,0-9.18.92-13.79,1.11-3.16.14-6.99-.14-10.6,3.45,3.16.74,5.38,1.26,7.6,1.77.89-.94,1.69-2.58,2.68-2.71.07,0,.13-.02.2-.03.1-.01.2-.03.3-.04.12-.02.24-.03.36-.05,2.51-.32,5.03-.67,7.53-.68h.18c2.82,0,5.61.44,8.33,1.81.16.08.32.16.48.25.88-2,2.22-2.51,3.66-2.51.72,0,1.47.13,2.2.25.73.13,1.44.25,2.09.25h.05c7.22-.08,14.32-.23,21.06-3.63-1.26-.5-2.61-.96-3.84-.96"/>
    <path class="cls-2" d="M1582.45,658.29c-.14,0-.29,0-.44.01-.47,4.21-.93,8.42-1.58,14.29,1.01-3.05,1.49-4.48,1.96-5.9,5.48,14.99,12.87,27.61,29.67,31.33-1.74-1.44-3.76-2.48-5.79-3.49-6.81-3.37-12.55-8.12-15.58-15.09-2.34-5.37-3.56-11.25-4.99-16.97-.49-1.98-.18-4.18-3.26-4.18"/>
    <path class="cls-2" d="M1404.88,582.22l-.08.08c.03.13.06.26.09.39,0-.16,0-.32,0-.47M1404.89,582.69c0,2.41-.34,4.92.33,7.11,5.05,16.52,10.32,32.96,15.53,49.43-.37-5.62-1-11.3-3.05-16.43-5.23-13.09-9.77-26.35-12.81-40.11"/>
    <path class="cls-2" d="M1428.86,729.18c-4.58,5.15-1.46,11.42-3.76,17.9-1.77-1.37-3.33-2.25-4.43-3.51-1.2-1.38-1.96-3.12-2.92-4.7v-.04c.61,2.26.62,5.06,2.02,6.64,1.5,1.69,4.31,2.21,6.74,3.34.75,3.41,1.56,7.07,2.36,10.74.37-3.67-.24-7.17-.54-10.7-.28-3.31-.39-6.66-.29-9.99.09-3.23.54-6.46.83-9.68"/>
    <path class="cls-2" d="M1329.47,645.97h0s0,0,0,.01c.05.1.1.19.16.29-.05-.1-.1-.19-.16-.29-.01.06-.03.12-.04.17,0,.04-.02.08-.03.11-.36,1.23-1.09,1.7-2.05,1.73-.03,0-.07,0-.1,0h-.04c-.31,0-.65-.05-1-.13-.11-.02-.22-.05-.33-.08-2.17-.6-4.35-1.16-6.52-1.74,2.24,1.3,4.35,3.17,6.76,3.76,5.02,1.24,6.42,4.82,6.26,9.04-.2,5-1.14,9.96-1.8,14.94,1.08-2.03,2.66-4.01,2.89-6.14.44-4.19-.11-8.47-.02-12.71.03-1.66.66-3.3.95-4.63-1.56-1.38-3.24-2.85-4.92-4.33M1330.57,673.78c-.06.12-.13.24-.19.36l.12.14c.02-.17.04-.33.06-.5"/>
    <path class="cls-2" d="M1330.39,674.14c-.06.33-.11.66-.15,1,.1-.28.2-.56.29-.84l-.02-.02-.12-.14ZM1330.23,675.14c-4.43,12.28-13.9,20.88-22.7,29.96,7.5-4.26,18.58-16.09,21.36-22.87.9-2.18,1.01-4.68,1.34-7.09"/>
    <path class="cls-3" d="M1324.62,743.51c-1.32,1.15-1.8,2.16-1.79,3.1,0,2.02,2.28,3.67,3.21,5.55l.19.27c.28.56.54,1.07.78,1.54.01.03.03.05.04.08,1.56,3.07,2.39,4.33,3.69,4.35h.04s.03,0,.05,0c.81-.02,1.81-.49,3.29-1.3.05-.03.1-.05.15-.08.09-.05.19-.11.29-.16.13-.07.26-.15.4-.22.07-.04.14-.08.21-.12-.82-1.13-1.62-2.22-2.43-3.32-2.7-3.23-5.4-6.46-8.1-9.69"/>
    <path class="cls-2" d="M1418.67,697.76c-.03.16-.05.32-.07.48.02-.16.05-.32.07-.48M1418.6,698.24c-.44,3.05-1.01,6.08-1.22,9.14-.22,3.3-.05,6.63-.05,9.95h.26c.31-2.08.62-4.16.95-6.38,1.89-.42,3.59-.79,6.05-1.34-2.78-3.83-6.53-6.65-6-11.38"/>
    <path class="cls-2" d="M1303.64,635.28h0c.33,1.06.66,2.12,1.02,3.27-.29.13-.6.19-.92.19-.64,0-1.32-.22-2-.44-.68-.22-1.35-.44-1.97-.44-.93,0-1.74.5-2.27,2.24,1.47,2.37,3.39,2.97,5.47,2.97,1.33,0,2.72-.25,4.1-.42,1.78-.23,3.57-.47,5.35-.7-.03-.03-.06-.07-.08-.1-.06-.04-.12-.07-.18-.11.06.04.12.07.18.11-.76-.95-1.39-2.08-2.35-2.75-2.02-1.41-4.23-2.56-6.36-3.81"/>
    <path class="cls-2" d="M1370.45,671.22h0l-.05.07h0s-.02.03-.02.03c.08.14.16.28.25.43-.05-.17-.11-.35-.17-.52M1370.62,671.74c2.48,7.82,3.55,16.16,8.83,24.47.67-3.26,1.07-5.19,1.22-5.91-1.78-1.39-3.36-2-3.79-3.07-1.31-3.27-2.02-6.79-3.28-10.09-.72-1.9-1.94-3.62-2.99-5.4"/>
    <path class="cls-2" d="M1313.74,732.56c2.79,5.88,5.92,11.4,9.23,16.82.69,1.13,2.02,1.87,3.06,2.78-.93-1.87-3.2-3.52-3.21-5.55,0-.94.48-1.95,1.8-3.1-3.83-3.43-5.85-8.73-10.88-10.96"/>
    <path class="cls-2" d="M1437.53,591.48c-.75,0-1.54.13-2.4.44.95,3.12,1.81,5.96,2.59,8.54,2.51-1.48,5.13-3.03,8.78-5.19-3.54-1.56-5.91-3.79-8.97-3.79"/>
    <path class="cls-2" d="M1357.2,591.54c-1.15,11.18,1.32,22.03,3.86,32.9-1.29-10.97-2.57-21.93-3.86-32.9"/>
    <path class="cls-2" d="M1333.9,700.74c.42,7.29.79,13.68,1.16,20.08.38-.05.76-.09,1.14-.14,0-3.51.03-7.02,0-10.53-.05-4.92-.54-7.77-2.29-9.41"/>
    <path class="cls-2" d="M1465.28,479.58c-1.52,5.2-3.58,12.13-5.57,19.07-.45,1.56-.76,3.17-1.11,4.76,4.93-7.91,7.64-16.33,6.68-23.83M1458.59,503.41c-.1.16-.21.33-.31.49l.16.18c.05-.22.1-.45.15-.67"/>
    <path class="cls-3" d="M1469.79,683.55c-.44.19-.88.38-1.32.58.59,3.39.98,6.83,1.9,10.13.25.9,2.08,1.35,3.18,2.01.44-.82.88-1.63,1.32-2.45-.09-.86-.17-1.73-.26-2.59-1.6-2.56-3.21-5.11-4.81-7.67"/>
    <path class="cls-2" d="M1462.25,619.11c3.5,5.18,7.01,10.47,10.66,15.65.65.92,1.76,1.51,2.73,2.21-3.05-6.78-9.49-15.35-13.39-17.86M1475.65,636.96c.06.13.12.26.17.39l.15-.15c-.11-.08-.21-.16-.32-.24"/>
    <path class="cls-2" d="M1423.83,649.82c-.3.04-.61.08-.91.12.23,5.07.46,10.14.69,15.35.88.24,1.88.52,3.35.93-1.1-5.77-2.12-11.08-3.13-16.39"/>
    <path class="cls-2" d="M1450.03,547.51c-.81,0-1.61.59-2.29,1.99-2.13,4.39-3.5,9.14-5.2,13.74,2.06-1.94,2.83-4.37,3.92-6.65,1.4-2.93,2.81-5.98,6.45-6.75-.85-1.42-1.88-2.33-2.89-2.33M1453.18,549.8s-.06,0-.08.01c-.06.01-.12.02-.18.04.03.05.05.09.08.14l.18-.19Z"/>
    <path class="cls-2" d="M1458.29,503.91c-.04.25-.07.51-.11.76.09-.19.19-.38.28-.57h0s-.16-.19-.16-.19ZM1458.18,504.66c-2.67,5.49-5.34,10.96-8.02,16.44,5.47-4.13,7.07-10.12,8.02-16.44M1450.16,521.1c-.11.08-.22.16-.33.25l.15.14c.06-.13.13-.26.19-.38"/>
    <path class="cls-2" d="M1481.21,648.58c-.22,0-.45.02-.7.07,2.63,4.43,5.28,8.83,7.93,13.24.84,1.38,1.23,3.31,3.2,3.31.19,0,.39-.02.61-.06-2.69-4.7-5.46-9.37-8.04-14.13-.76-1.41-1.53-2.43-3-2.43M1480.49,648.64l-.06.02s.05,0,.07-.01c0,0,0,0,0,0M1492.38,665.12s-.09.02-.13.02c.01.03.03.05.04.08l.09-.1Z"/>
    <path class="cls-2" d="M1435.7,609.02c-.86,5.73-1.71,11.46-2.57,17.19.27.04.54.09.81.13.97-5.73,1.94-11.46,2.92-17.19-.39-.04-.77-.08-1.16-.12"/>
    <path class="cls-2" d="M1492.35,665.16l-.06.07s.02.04.03.07c0-.04.02-.09.02-.13M1492.33,665.29c-1.12,6.55,3.84,10.34,7.03,14.93-2.34-4.98-4.68-9.95-7.03-14.93"/>
    <path class="cls-2" d="M1363.8,637.11c-.57.14-1.15.28-1.72.41,1.54,5.08,3.08,10.16,4.63,15.23-.97-5.22-1.94-10.43-2.91-15.65M1366.71,652.76c.1.55.2,1.09.31,1.64l.14-.16c-.15-.49-.3-.99-.45-1.48"/>
    <path class="cls-2" d="M1518.98,707.57l-.16.17c.17.04.34.08.51.13-.12-.1-.23-.2-.34-.3M1519.32,707.87c3.48,3.01,6.96,6.03,10.45,9.04-2.71-4-5.66-7.71-10.45-9.04"/>
    <path class="cls-2" d="M1552.64,381.47v.02s0,0,0,0c0,0,0-.02,0-.03M1552.64,381.5c-1.8,8.43-.52,13.31,4.54,15.68-4.25-4.75-4.38-10.22-4.54-15.68"/>
    <path class="cls-2" d="M1449.82,521.35c-.03.09-.06.17-.09.25.08-.04.16-.08.24-.11l-.15-.14ZM1449.73,521.6c-2.91,1.46-3.22,4.29-2.86,6.93.49,3.56,1.65,7.02,2.55,10.5.16-.87.5-1.8.22-2.48-2.11-5.04-1.69-9.99.09-14.95M1449.43,539.03c-.02.1-.03.19-.04.29h0s.09-.11.09-.11c-.02-.06-.03-.12-.05-.18"/>
    <path class="cls-2" d="M1384.91,750.42c-.06,2.46,1.53,4.03,3.84,5.14-1.45-1.93-2.79-3.74-3.84-5.14M1388.75,755.56c.67.89,1.35,1.81,2.04,2.73.48-.49.97-.98,1.45-1.47-1.25-.35-2.45-.75-3.49-1.25"/>
    <path class="cls-2" d="M1367.15,654.25l-.13.15c.12.35.24.71.37,1.06-.08-.4-.15-.81-.23-1.21M1367.38,655.46c1,5.24,2.02,10.47,3.05,15.66,1.2-5.68-1.25-10.61-3.05-15.66M1370.43,671.12c-.01.05-.02.11-.03.16h0s.05-.07.05-.07c0-.03-.01-.06-.02-.1"/>
    <path class="cls-2" d="M1503.63,691.32l-.12.1c.09.02.18.04.27.05-.05-.05-.1-.11-.14-.16M1503.77,691.48c2.54,2.75,5.08,5.51,7.61,8.26-1.6-3.61-3.13-7.28-7.61-8.26M1511.39,699.74c.09.21.18.41.27.62l.15-.15c-.14-.15-.29-.31-.43-.46"/>
    <path class="cls-2" d="M1573.34,531.27l-.2.21c.11.04.21.07.32.11-.04-.1-.08-.21-.13-.32ZM1573.46,531.59c.98,2.37,2.62,3.53,5.21,3.53.35,0,.72-.02,1.1-.06-1.19-3.67-4.11-2.84-6.31-3.46"/>
    <path class="cls-2" d="M1475.97,637.21l-.15.14c.13.16.26.31.39.47-.08-.2-.16-.41-.24-.61M1476.2,637.82c1.41,3.6,2.83,7.2,4.27,10.76,1.42-4.78-1.68-7.66-4.27-10.76M1480.47,648.59v.05s.02,0,.02,0c0-.02-.01-.03-.02-.05"/>
    <path class="cls-2" d="M1340.14,618.73c-.22.47-.44.94-.66,1.41,1.7.31,2.76,2.3,5.35,2.3.67,0,1.43-.13,2.34-.46-3.18-1.47-5.1-2.36-7.03-3.25"/>
    <path class="cls-2" d="M1511.81,700.21l-.15.15.2.21c-.02-.12-.04-.23-.05-.35M1511.86,700.56c.64,3.81,3.27,5.69,6.63,6.85-2.21-2.28-4.42-4.57-6.63-6.85M1518.49,707.41c.11.11.21.22.32.33l.17-.17c-.16-.05-.33-.11-.49-.16"/>
    <path class="cls-2" d="M1303.78,708.99c-2.27,1.71-4.54,3.41-6.81,5.12h-.01c.62.17,1.17.25,1.67.25,3,0,4.06-2.7,5.15-5.37"/>
    <path class="cls-2" d="M1485.26,755.71c-.25.61-.8,1.69-.7,1.76.96.63,2.04,1.08,3.08,1.58.28-.53.57-1.07.85-1.6-1.08-.58-2.15-1.16-3.23-1.74"/>
    <path class="cls-2" d="M1325.17,638.14c1.43,2.61,2.87,5.22,4.3,7.84.05.1.11.19.16.29-.05-.1-.11-.19-.16-.29-1.43-2.61-2.87-5.23-4.3-7.84"/>
    <path class="cls-2" d="M1312.17,641.73c.06.04.12.07.18.11,2.41,1.46,4.83,2.91,7.24,4.37-2.41-1.46-4.83-2.91-7.24-4.37-.06-.04-.12-.07-.18-.11"/>
    <path class="cls-2" d="M1420.79,683.85c-.13.08-.37.15-.38.25-.08,1.13-.13,2.25-.17,3.38,0,.12.18.25.27.37.08-.2.23-.4.24-.61.03-1.13.03-2.26.04-3.39"/>
    <path class="cls-2" d="M1417.75,730.72c-.16,0-.31.01-.47.02.15,2.7.31,5.4.46,8.09v.02s0-8.14,0-8.14Z"/>
    <path class="cls-2" d="M1505.23,757.04c-2.19,2.27-2.49,3.71,2.15,4.19-.94-1.84-1.5-2.93-2.15-4.19"/>
    <path class="cls-2" d="M1501.92,686.51c.56,1.59,1.13,3.17,1.7,4.76,1.19-2.04.75-3.66-1.7-4.76M1503.61,691.27s-.05.08-.07.12l.09-.07-.02-.05"/>
    <path class="cls-3" d="M1530.4,601.83c-4.74,3.53-6.68,5.47-6.68,8.58,0,1.87.7,4.15,1.91,7.46,1.47,4.02,2.85,8.09,3.94,12.22.96,3.65,2.84,6.37,6.6,8.56,3.02-6.68,4.64-12.71,4.63-18.07-.02-7.58-3.28-13.84-10.4-18.76"/>
    <path class="cls-3" d="M1532.66,576.31c-3.54,4.62-5.24,7.84-5.23,10.77,0,2.43,1.17,4.66,3.42,7.33,2.34-3.07,3.28-6.23,3.29-9.63,0-2.65-.56-5.45-1.47-8.47"/>
    <path class="cls-3" d="M1472.62,704.03h0c.83,6.91,1.44,11.95,2.08,17.29,1.57-.32,2.68-.54,3.78-.76,1.17-2.2,2.34-4.42,3.83-7.23-2.88-2.76-5.66-5.43-9.69-9.3M1478.59,720.54s-.07.01-.11.02c-.03.06-.07.13-.1.19l.21-.21Z"/>
    <path class="cls-3" d="M1368.44,744.69c-8.73,4.53-17.43,9.05-26.6,13.81,1.32,1.54,2.49,2.9,3.66,4.26h-.04c-.08,0-.15,0-.23,0,1.96,1.97,3.92,3.94,5.88,5.91-1.96-1.97-3.92-3.94-5.88-5.91,1.96,1.97,3.92,3.94,5.88,5.91.9.41,1.81.83,2.71,1.24,2.16,1.73,4.31,3.46,6.47,5.19,1.08.87,2.17,1.74,3.25,2.6.58.23,1.09.34,1.54.34,1.64,0,2.5-1.39,3.23-3.01.84-7.03,1.63-14.06,2.54-21.08.16-1.22.36-2.45.36-3.64,0-1.99-.54-3.91-2.77-5.61M1345.21,762.73l.02.02-.02-.02"/>
    <path class="cls-3" d="M1345.21,762.73h0s.01.01.02.02c0,0-.01-.01-.02-.02M1345.21,762.73s.01.01.02.02h.26l-.28-.02ZM1341.57,762.74c-.14.94-.21,1.84-.21,2.71.02,4.4,1.85,8,4.81,11.22-.35.12-.6.26-.78.41-.78.67-.03,1.6.54,2.49,1.19,1.85,2.38,3.69,3.57,5.53,4.68,3.37,9.36,6.74,14.55,10.48,2.48-6.49,5.44-12.26-.51-17.89-1.08-.87-2.17-1.74-3.25-2.6-2.16-1.73-4.32-3.46-6.47-5.19-.9-.41-1.81-.83-2.71-1.24-1.96-1.97-3.92-3.94-5.88-5.91-1.23,0-2.46,0-3.66,0M1356.63,782.89c-3.97-.96-6.98-3.52-9.98-6.13,4.47.02,6.94,3.58,9.98,6.13"/>
    <path class="cls-2" d="M1046.66,803.86h-.71c.06.55.12,1.11.19,1.66.42,3.38,1.36,6.69,1.7,10.07.41,4.08-.74,5.41-4.88,5.53-.53.01-1.07.02-1.6.02-3.45,0-6.9-.27-10.35-.33-1.44-.02-2.12-.8-2.57-1.98-.29-.77-.51-1.56-.83-2.32-1.23-2.94-3.27-4.73-6.45-4.73-.2,0-.41,0-.63.02-.27.02-.53.03-.79.03-1.78,0-3.44-.44-4.93-1.43-.74-.49-1.44-.71-2.13-.71-.83,0-1.64.31-2.46.84-2.02,1.3-4.21,1.65-6.46,1.65-.79,0-1.59-.04-2.39-.1-.82-.06-1.64-.29-2.45-.29-.12,0-.23,0-.35.01-.32.03-.64.04-.94.04-4.05,0-6.63-2.49-8.88-5.63-.46-.65-1.01-1.23-1.53-1.84.69,1.34,1.4,2.66,2.03,4.03.09.2-.23.58-.4.91.01,0,.03,0,.04,0l-.08.09s0,0,0,0l.08-.09c1.91,2.67,4.88,3,7.76,3.34,2.33.27,4.71.16,7.07.3.36.02.72.03,1.07.03,2.13,0,4.16-.39,6.13-1.39.62-.31,1.5-.61,2.22-.61.28,0,.54.05.74.15,2.62,1.37,5.34,1.55,8.2,1.7,3.71.2,6.5,5.9,4.64,9.11-1.79,3.07-2.9,6.2-1.07,9.67.94,1.78-.1,2.99-1.36,3.9-1.62,1.18-1.79,2.64-1.31,4.37.7,2.49,1.53,4.96,2.04,7.49.42,2.02,1.03,3.83,2.53,5.31.57.56.96,1.29,1.4,1.89-1.48,2.34-3.05,3.44-5.2,3.44-.97,0-2.06-.22-3.3-.66-1.85-.65-3.62-1.48-5.84-2.41,3.29,2.51,6.02,3.75,8.7,3.75,2.31,0,4.58-.92,7.16-2.74.55,1.33,1.22,2.54,1.56,3.83.74,2.84,1.4,5.72,1.93,8.61.4,2.19.69,4.43.74,6.66.08,3.99-.47,8.03-.02,11.96.59,5.21-4.29,11.02-8.84,11.86-3.92.72-7.75,1.92-11.63,2.89-.53.13-1.09.16-1.43.21-2.72-3.88-5.27-7.53-7.91-11.3,1.5-1.73,2.85-3.28,4.57-5.27-1.43-.6-2.48-.97-3.46-1.47-2.14-1.1-4.86-1.13-6.37-3.41-.22.4-.43.81-.65,1.21-.54-.33-1.45-.55-1.57-1-.45-1.63-.65-3.33-.94-5.01.22-.1.44-.19.65-.28.79,1.27,1.59,2.53,2.38,3.79-1.27-5.01-2.71-8.26-4.27-9.23.25,3.72.49,7.29.72,10.65-.28.14-.57.19-.84.19-.25,0-.49-.04-.73-.07-.24-.04-.47-.07-.69-.07-.51,0-.95.19-1.29,1.03.56.33,1.09.78,1.7.99,2.3.77,3.4,2.32,3.48,4.74.08,2.46.3,4.92.48,7.38.05.75.15,1.49.22,2.24.22.08.43.16.65.24.83-1.18,1.67-2.35,2.5-3.53.85-.67,1.71-1.36,2.84-2.25,2.49,4.2,5.19,7.84,6.12,12.41-.33.27-.6.49-.87.71-2.84,2.25-2.92,2.52-1.36,5.9.59,1.28,1.32,2.5,1.92,3.78,2.1,4.47,4.48,8.86,4.42,14.02-.04,3.18-.07,6.36-.12,9.54-.09,5.24-3.4,8.37-7.46,10.81-.73.44-1.37.65-1.96.65-1.12,0-2.05-.76-3.05-2.11-1.11-1.5-2.27-3.11-3.77-4.15-3.28-2.26-6.79-4.17-10.2-6.23,1.85,2.91,4.95,4.15,7.75,5.77,2.25,1.31,4.28,2.78,5.49,5.55-.17.02-.34.03-.5.03-2.6,0-4.13-2.13-6.28-2.62,2.14,1.38,4.31,2.73,6.43,4.15.95.64,2.11,1.24,2.63,2.17,5.11,9.15,10.36,18.28,13.2,28.44,1.46,5.22,3.93,9.5,8.1,12.88.63.51,1.01,1.33,1.96,2.64-1.74,0-3.21.07-4.57.07-.99,0-1.92-.04-2.84-.17-.92-.13-1.86-1.22-2.48-2.1-1.87-2.63-3.58-5.37-5.36-8.07-.19.11-.38.23-.57.34.6,1.18,1.2,2.36,1.8,3.55-.45.15-.8.27-1.33.46,1.14.79,2.37,1.26,2.98,2.16.65.95.65,2.32,1.06,3.46.19.53.73.91,1.04,1.41.49.8,1.02,1.59,1.35,2.46,2.13,5.47,4.26,10.94,6.29,16.45,2.29,6.22,5.41,12.01,8.79,17.67.89,1.5,1.95,3.02,3.27,4.14,5.32,4.51,10.12,9.51,14.58,14.86,1.21,1.45,2.76,2.62,4.15,3.92.26-.28.52-.55.78-.83-1.4-1.2-2.92-2.29-4.19-3.61-4.74-4.91-9.41-9.88-14.06-14.87-1.36-1.45-2.81-2.89-3.83-4.57-5.45-8.98-9.76-18.51-13.18-28.44-.69-2.01-1.32-4.05-2.09-6.45,1.99.45,3.35.76,4.7,1.06-.02-.02-.05-.05-.07-.08,1.01.53,2.01,1.45,3.01,1.46,3.01.02,4.58,1.86,6.11,4.01.95,1.34,2,2.6,3.08,3.83.48.54,1.14.92,2.07,1.63.2-1.98.34-3.47.49-4.95.54-.76,1.19-1.18,1.99-1.18.32,0,.66.07,1.03.2-1.08-.78-1.83-1.72-1.6-3.16-.02,0-.03,0-.05,0,.55-1.16,1.11-2.33,1.82-3.83,1.21,1.6,2.15,2.85,3.1,4.1-.02-.23.04-.51-.06-.69-.78-1.45-2.05-2.83-2.24-4.35-.19-1.55.67-3.23,1.14-5.15-.76.2-1.4.3-1.98.53-2.78,1.08-5.56,2.19-8.32,3.32-.68.28-1.3.4-1.87.4-2,0-3.35-1.52-4.56-3.17-1.32-1.8-2.33-3.82-3.56-5.69-.32-.48-1.01-1.17-1.4-1.17-.02,0-.05,0-.07,0-.31.08-.58.12-.81.12-1.45,0-1.52-1.47-1.87-2.52-.87-2.56-1.33-5.3-2.46-7.72-3.38-7.25-7.01-14.38-10.53-21.56-.39-.79-.7-1.62-1.05-2.46,7-2.01,11.47-7.51,11.18-14.66-.09-2.12.17-4.26-.02-6.36-.23-2.55-.39-5.21-1.25-7.59-1.48-4.08-3.48-7.97-5.27-11.94-.53-1.19-1.17-2.36.08-3.54.68-.64,1.35-.98,2.03-.98.63,0,1.26.29,1.91.88.01.01.03.02.06.02.13,0,.44-.16.82-.29.16-.97.33-2.05.55-3.41,3.81-.94,7.57-1.84,11.32-2.79,6.69-1.7,8.98-3.7,9.64-9.9.62-5.82.15-11.76.07-17.64-.02-1.4-.39-2.79-.66-4.18-.29-1.5-.62-3-.99-4.49-.75-3.05-.59-6.39-2.88-8.95.72-3.07,1.54-6.13,2.15-9.23.58-2.93-.19-5.61-2.05-7.96-.58-.74-1.17-1.48-1.8-2.18-1.04-1.17-1.47-2.33-.41-3.78,1.57-2.16,1.65-4.57,1.04-7.1-.23-.96-.2-1.99-.3-3.23,1.51.08,2.67.12,3.82.19,2.7.17,5.39.41,8.09.53.31.01.6.02.88.02,6.28,0,7.13-3.26,6.02-8.52-.69-3.24-1.15-6.54-1.72-9.81M1025.58,827.75c0-1.45.84-3.04,2.59-5.33.45,1.49.73,2.88.73,4.19,0,1.68-.47,3.25-1.63,4.76-1.11-1.32-1.69-2.42-1.69-3.62M1023.75,839.29c0-1.54.96-2.5,3.3-4.24,3.52,2.43,5.13,5.52,5.14,9.28,0,2.65-.79,5.63-2.28,8.94-1.86-1.08-2.79-2.42-3.26-4.23-.54-2.04-1.22-4.06-1.95-6.04-.6-1.63-.94-2.76-.94-3.69M999.18,883.44h.04c1.53.02,2.37,1.02,3.2,2,0,0,0,0,.01.02.03.03.05.06.08.09.05-.07.09-.16.14-.26.21-.39.44-.86.53-.86,0,0,0,0,0,0h0c1.17.34,2.3.8,4.17,1.5-.02.01-.04.02-.06.03-.02,0-.03.02-.05.03-.01,0-.02.01-.03.02-.08.04-.15.09-.21.15-.07.05-.13.11-.19.16-.03.03-.06.07-.1.1-.74.82-.9,2.06-1.8,2.09h-.03s-.08,0-.13,0c-.29-.03-.66-.18-1.13-.49-.02-.01-.04-.03-.07-.04-.19,0-.42.04-.63.07-.09,0-.17.02-.25.02,0,0-.02,0-.03,0-.03,0-.06,0-.08,0-.03,0-.05,0-.08,0,0,0-.02,0-.02,0-.05,0-.09-.02-.13-.05-.02,0-.03-.02-.05-.04-1.4-1.31-2.71-2.7-4.32-4.34.03,0,.06-.01.08-.02h0c.07-.02.14-.03.2-.05.32-.07.61-.1.88-.1h.03M998.5,885.59h0c1.99,1.91,3.36,3.23,4.78,4.6-.73,1.39-1.31,2.49-1.89,3.57.02,0,.04,0,.06-.01l-.11.11s.03-.06.05-.09c-.54.11-1.09.22-1.87.38-.32-2.64-.62-5.13-1.03-8.55M1037.53,1000.73c-.23,0-.43-.04-.59-.14-1.92-1.28-3.7-2.77-5.97-4.53,3.02-.97,5.49-1.77,8.09-2.61,1.89,2.55-.17,4.82-.05,7.09-.48.04-1.03.18-1.48.18M1036.22,1006.71c-3.49-2.59-5.41-6.01-7.4-9.38.18-.21.37-.41.55-.62,2.47,1.64,4.94,3.3,7.43,4.93,1.25.82.91,2,.81,3.14-.43.59-.86,1.2-1.39,1.93M1022.91,998.67c-.29-.3-.58-.6-.86-.89,1.2-.59,2.17-.91,3-.91,1.32,0,2.3.79,3.37,2.58-2.1-.3-3.81-.54-5.51-.78"/>
    <rect class="cls-1" x="877.51" y="256.51" width="737.2" height="1042.61"/>
  </g>
  <g>
    <path class="cls-2" d="M116.78,501.49c-.14,8.09-.59,16.11-1.59,24.06-.86,6.83-2.75,13.54-3.44,20.37-.84,8.26,1.5,10.94,9.88,11.17,1.08.03,2.15.04,3.23.04,6.98,0,13.98-.56,20.97-.67,2.91-.05,4.3-1.61,5.21-3.99.59-1.55,1.04-3.16,1.68-4.69,2.5-5.95,6.62-9.57,13.05-9.57.41,0,.84.01,1.28.05.53.04,1.06.06,1.59.06,3.6,0,6.97-.9,9.97-2.9,1.49-1,2.92-1.43,4.32-1.43,1.69,0,3.32.64,4.97,1.7,4.1,2.64,8.52,3.34,13.07,3.34,1.6,0,3.22-.09,4.84-.21,1.66-.12,3.33-.58,4.97-.58.23,0,.47,0,.7.03.65.06,1.29.09,1.9.09,8.19,0,13.42-5.04,17.98-11.38.94-1.31,2.04-2.5,3.1-3.72-1.39,2.71-2.84,5.38-4.11,8.14-.19.4.46,1.18.81,1.83-.03,0-.06,0-.08-.01-3.87,5.4-9.89,6.07-15.71,6.75-4.73.55-9.54.33-14.31.61-.73.04-1.45.06-2.17.06-4.31,0-8.42-.8-12.41-2.8-1.26-.64-3.04-1.23-4.49-1.23-.57,0-1.09.09-1.5.31-5.3,2.77-10.81,3.14-16.61,3.44-7.52.4-13.16,11.94-9.38,18.42,3.62,6.22,5.86,12.54,2.17,19.54-1.9,3.61.19,6.04,2.74,7.89,3.29,2.39,3.63,5.33,2.66,8.83-1.41,5.04-3.09,10.03-4.14,15.14-.84,4.09-2.08,7.75-5.11,10.74-1.14,1.13-1.95,2.61-2.83,3.83,2.99,4.74,6.18,6.96,10.53,6.96,1.96,0,4.16-.45,6.69-1.33,3.74-1.3,7.34-3,11.82-4.86-6.66,5.07-12.18,7.58-17.61,7.58-4.67,0-9.28-1.86-14.49-5.53-1.12,2.68-2.48,5.13-3.16,7.75-1.5,5.75-2.84,11.56-3.9,17.41-.8,4.44-1.4,8.97-1.49,13.47-.16,8.07.95,16.23.05,24.19-1.19,10.53,8.69,22.28,17.89,23.97,7.94,1.46,15.69,3.88,23.54,5.85,1.07.27,2.2.32,2.89.42,5.5-7.85,10.67-15.22,16.01-22.85-3.04-3.5-5.76-6.64-9.25-10.66,2.89-1.22,5.02-1.96,7.01-2.98,4.33-2.23,9.84-2.28,12.89-6.9.44.82.88,1.63,1.32,2.45,1.1-.66,2.93-1.12,3.18-2.01.92-3.3,1.31-6.74,1.9-10.13-.44-.19-.88-.38-1.32-.58-1.6,2.56-3.21,5.11-4.81,7.67,2.57-10.13,5.49-16.7,8.64-18.67-.51,7.53-1,14.74-1.47,21.54.57.29,1.15.39,1.72.39.5,0,1-.07,1.48-.15.48-.07.95-.15,1.39-.15,1.02,0,1.93.39,2.61,2.09-1.13.67-2.2,1.58-3.45,1.99-4.66,1.56-6.88,4.69-7.05,9.58-.17,4.98-.61,9.95-.96,14.93-.11,1.52-.3,3.02-.45,4.53-.43.16-.87.32-1.31.48-1.69-2.38-3.38-4.76-5.07-7.14-1.72-1.36-3.46-2.74-5.75-4.56-5.05,8.5-10.51,15.86-12.39,25.1.67.54,1.21.99,1.76,1.43,5.75,4.55,5.91,5.09,2.75,11.92-1.2,2.59-2.67,5.06-3.88,7.64-4.25,9.04-9.07,17.92-8.94,28.34.08,6.43.13,12.86.25,19.29.19,10.6,6.88,16.92,15.1,21.85,1.48.89,2.78,1.31,3.96,1.31,2.26,0,4.14-1.53,6.18-4.27,2.25-3.03,4.59-6.29,7.63-8.38,6.63-4.56,13.73-8.44,20.64-12.59-3.74,5.88-10.02,8.38-15.68,11.67-4.55,2.65-8.66,5.62-11.12,11.22.35.04.68.05,1.01.05,5.26,0,8.37-4.3,12.71-5.3-4.32,2.79-8.72,5.52-13.02,8.4-1.91,1.28-4.28,2.51-5.32,4.38-10.34,18.5-20.97,36.96-26.72,57.5-2.96,10.56-7.95,19.2-16.4,26.05-1.28,1.04-2.04,2.7-3.97,5.35,3.52,0,6.51.14,9.25.14,2.01,0,3.89-.08,5.74-.34,1.86-.27,3.77-2.47,5.02-4.24,3.78-5.32,7.26-10.86,10.85-16.32.38.23.77.46,1.15.69-1.21,2.39-2.42,4.78-3.65,7.19.91.31,1.62.55,2.7.92-2.32,1.59-4.8,2.55-6.04,4.37-1.31,1.91-1.31,4.68-2.15,6.98-.39,1.06-1.49,1.84-2.11,2.85-.99,1.61-2.06,3.22-2.74,4.97-4.3,11.06-8.62,22.13-12.72,33.26-4.63,12.57-10.95,24.28-17.8,35.73-1.81,3.03-3.95,6.11-6.61,8.36-10.78,9.12-20.48,19.23-29.52,30.04-2.45,2.93-5.58,5.3-8.4,7.93-.53-.56-1.06-1.12-1.59-1.68,2.84-2.42,5.91-4.63,8.49-7.3,9.58-9.93,19.04-19.98,28.46-30.06,2.75-2.94,5.69-5.85,7.75-9.25,11.04-18.16,19.76-37.43,26.67-57.51,1.4-4.07,2.67-8.2,4.24-13.04-4.03.91-6.78,1.53-9.52,2.15.05-.05.1-.1.15-.15-2.04,1.07-4.06,2.93-6.1,2.94-6.09.04-9.28,3.76-12.36,8.1-1.92,2.7-4.05,5.26-6.24,7.75-.97,1.1-2.32,1.85-4.19,3.3-.4-4.01-.69-7.01-.99-10.01-1.09-1.54-2.41-2.38-4.04-2.38-.65,0-1.34.13-2.08.41,2.19-1.57,3.71-3.48,3.23-6.39.03,0,.07,0,.1,0-1.12-2.35-2.25-4.7-3.69-7.74-2.45,3.23-4.37,5.77-6.28,8.3.03-.47-.08-1.02.12-1.4,1.57-2.94,4.15-5.72,4.54-8.78.4-3.13-1.34-6.53-2.3-10.42,1.54.4,2.83.61,4.02,1.08,5.63,2.2,11.25,4.44,16.85,6.71,1.38.56,2.63.81,3.78.81,4.04,0,6.78-3.08,9.23-6.41,2.67-3.63,4.71-7.73,7.21-11.5.64-.97,2.04-2.36,2.83-2.36.05,0,.1,0,.15.02.63.17,1.17.24,1.63.24,2.94,0,3.07-2.98,3.79-5.09,1.77-5.18,2.68-10.71,4.98-15.62,6.84-14.66,14.19-29.08,21.32-43.6.79-1.6,1.41-3.28,2.13-4.97-14.17-4.07-23.22-15.19-22.63-29.63.17-4.28-.34-8.61.05-12.86.47-5.16.8-10.54,2.54-15.34,3-8.25,7.05-16.11,10.66-24.14,1.08-2.4,2.37-4.78-.17-7.16-1.38-1.29-2.74-1.97-4.12-1.97-1.27,0-2.55.58-3.87,1.78-.03.02-.07.04-.12.04-.27,0-.89-.33-1.66-.58-.32-1.97-.67-4.16-1.11-6.89-7.71-1.89-15.33-3.71-22.92-5.64-13.53-3.44-18.18-7.47-19.52-20.01-1.25-11.76-.31-23.77-.13-35.66.04-2.82.79-5.65,1.33-8.45.59-3.04,1.25-6.06,1.99-9.07,1.51-6.17,1.19-12.93,5.82-18.09-1.47-6.22-3.11-12.4-4.35-18.66-1.18-5.93.39-11.34,4.14-16.1,1.18-1.5,2.38-2.98,3.64-4.41,2.11-2.37,2.98-4.71.83-7.65-3.18-4.36-3.35-9.24-2.11-14.35.47-1.95.4-4.02.61-6.54-3.05.15-5.39.24-7.74.39-5.46.35-10.92.84-16.38,1.08-.62.03-1.21.04-1.78.04-12.72,0-14.44-6.59-12.19-17.23,1.63-7.67,2.64-15.47,4.09-23.18.58-3.07-.61-4.16-3.1-4.17,5.62-2.76,2.97-8.89,5.12-13.18M156.83,570.5c0-2.93-1.69-6.15-5.23-10.77-.91,3.02-1.48,5.82-1.47,8.47,0,3.41.95,6.56,3.29,9.63,2.25-2.67,3.41-4.9,3.42-7.33M160.54,593.83c0-3.11-1.94-5.05-6.68-8.58-7.11,4.92-10.38,11.17-10.4,18.76-.01,5.36,1.6,11.38,4.63,18.07,3.76-2.19,5.64-4.9,6.6-8.56,1.09-4.13,2.46-8.21,3.94-12.22,1.21-3.3,1.91-5.59,1.91-7.46M210.25,683.1h-.04c-3.14.02-4.84,2.08-6.55,4.09-.05.06-.1.12-.15.17-.02-.04-.05-.08-.07-.13-.02-.04-.05-.08-.07-.13-.02-.04-.05-.08-.07-.13-.05-.1-.11-.2-.16-.3-.04-.08-.09-.16-.13-.24-.36-.68-.71-1.35-.87-1.35,0,0,0,0-.01,0-2.36.68-4.65,1.62-8.43,3.04l.1.05c.08.04.15.08.23.13.29.17.54.38.77.6,0,0,0,0,0,0,.05.05.11.11.16.16,1.54,1.67,1.84,4.24,3.71,4.26h.02s.08,0,.13,0c.56-.03,1.27-.29,2.18-.85,0,0,.01,0,.02-.01.01,0,.03-.02.04-.02.1-.06.2-.13.31-.2.32,0,.68.06,1.04.11.22.03.44.06.64.07.06,0,.11,0,.16,0h.03c.29,0,.54-.05.69-.2,2.83-2.64,5.49-5.46,8.75-8.78-.06-.02-.13-.03-.19-.05-.04,0-.09-.02-.13-.03-.76-.18-1.44-.27-2.07-.27h-.03M211.64,687.45h0c-4.02,3.87-6.81,6.54-9.69,9.3,1.49,2.81,2.66,5.03,3.83,7.23-.04,0-.07-.01-.11-.02l.21.21c-.03-.06-.07-.13-.1-.19,1.1.22,2.21.44,3.78.76.64-5.34,1.25-10.38,2.08-17.29M132.64,920.25c.46,0,.87-.07,1.19-.29,3.88-2.58,7.48-5.6,12.09-9.15-6.11-1.97-11.11-3.58-16.38-5.27-3.83,5.15.35,9.75.11,14.34.97.08,2.08.37,3,.37M135.29,932.34c7.07-5.24,10.95-12.16,14.98-18.97-.37-.42-.75-.84-1.12-1.25-5.01,3.32-10.01,6.67-15.03,9.96-2.52,1.65-1.85,4.05-1.65,6.35.87,1.2,1.74,2.41,2.82,3.91M162.23,916.1c.59-.61,1.18-1.21,1.75-1.81-2.44-1.19-4.4-1.83-6.08-1.83-2.66,0-4.65,1.6-6.82,5.21,4.26-.6,7.71-1.1,11.15-1.58M111.62,514.66s.02,0,.04,0c-.17.08-.35.16-.54.24l-.2-.21h0c.25-.02.48-.03.7-.03M234.78,522.63h0l.09.11h0s.01.02.01.02c-.14.17-.28.34-.43.5.11-.21.21-.42.32-.63"/>
    <path class="cls-2" d="M348.22,710.34c.19.02.38.05.57.07-.64,8.88-1.28,17.76-1.98,27.45,2.24-.59,3.48-.91,4.72-1.24-.8,1.1-1.6,2.19-2.43,3.32.07.04.14.08.21.12.14.08.27.15.4.22.1.05.19.11.29.16.05.03.1.06.15.08,1.47.8,2.47,1.28,3.28,1.3.02,0,.03,0,.05,0h.04c1.31-.02,2.13-1.29,3.69-4.35.01-.03.03-.05.04-.08.24-.47.5-.99.78-1.54-.69,2.39-1.39,4.8-2.06,7.12,7.82,5.51,16.7,4.53,25.02,6.16-3.57,1.06-7.05,1.54-10.55,1.69-.77.03-1.51.08-2.25.08-2.21,0-4.32-.37-6.53-2.35-1.39-1.25-3.6-3.08-6-3.08-1.33,0-2.71.56-4.05,2.09,0-.08,0-.15,0-.23,0-3.04-1.73-4.03-4.69-4.05h-.12c-.09,0-.19,0-.29,0-.12,0-.25,0-.38.01-.68,3.06-1.38,6.17-2.31,10.31,2.73-1.04,4.22-1.61,5.72-2.2-1.37,1.5-.74,4.02-3.42,5.18-1.82.79-3.37,3.36-4.02,5.45-2.17,6.96-3.97,14.04-5.74,21.12-.66,2.64-.87,5.4-1.47,9.24-3.17-1.82-5.51-3.17-7.85-4.51,1.82.22,3.64.43,5.67.67,1.81-7.05,3.52-13.73,5.4-21.06-1.59.38-2.44.58-3.21.76,1.13-1.76,2.27-3.52,3.4-5.28.58-.9,1.33-1.83.54-2.49-.17-.15-.43-.29-.78-.41,2.96-3.21,4.8-6.81,4.81-11.22,0-.87-.07-1.78-.21-2.71-1.2,0-2.43,0-3.66,0,0,0,.01-.01.02-.02l-.28.02c1.16-1.36,2.33-2.72,3.65-4.26-9.17-4.76-17.87-9.27-26.6-13.8-2.23,1.7-2.78,3.62-2.77,5.61,0,1.2.2,2.42.36,3.64.81,6.33,1.54,12.66,2.29,19-1.25-5.35-2.55-10.69-3.68-16.07-.54-2.55-.96-5.19-.91-7.78.08-4.27,1.81-6.54,4.74-6.54,1.19,0,2.57.37,4.13,1.14,2.96,1.46,5.68,3.43,8.5,5.17,4.57,2.83,9.11,5.76,15.69,6.18,1.39-9.62,2.73-18.87,4.06-28.12"/>
    <path class="cls-2" d="M280.07,239.93l.15.15c-.1.05-.2.1-.3.15.05-.1.1-.2.15-.3M279.92,240.23c-3.55,7.05-10.42,9.47-17.27,10.49-14.76,2.2-28,19.14-28.78,33.42-.68,12.57-2.73,25.08-6.59,37.22-1.21,3.81-1.74,7.94-1.95,11.96-.52,9.75-.96,19.53-.86,29.28.06,5.9.94,11.82,1.87,17.67,1,6.3,2.49,12.52,3.77,18.78-3.5-8.6-5.93-17.44-8.24-26.31-.35-1.35-.26-2.84-.23-4.27.2-9.05.19-18.1.75-27.13.42-6.87.51-14.06,2.63-20.48,4.32-13.05,5.73-26.49,7.55-39.94,2.27-16.67,14.7-29.79,30.93-33.53,4.3-.99,8.29-3.36,12.39-5.15,1.37-.6,2.68-1.34,4.01-2.02"/>
    <path class="cls-2" d="M399.55,537.95c2.18,0,4.5.42,6.91,1.27,5.1,1.81,9.95,4.46,14.69,7.1,8.06,4.5,15.5,10.16,24.77,12.31,1.99.46,4.08,1.64,5.52,3.08,4.74,4.76,9.2,9.8,13.77,14.74-2.09-.56-3.67-1.63-4.82-3.05-6.27-7.71-13.06-14.55-23.59-16.05-1.34-.19-2.59-1.17-3.83-1.88-5.57-3.22-10.94-6.82-16.72-9.6-4.86-2.34-10.11-3.97-15.31-5.49-.97-.28-1.89-.41-2.76-.41-3.67,0-6.54,2.31-8.92,5.4-4.43,5.77-6.01,12.46-5.08,19.49.5,3.74-.15,6.41-2.94,8.86-1.6,1.4-2.69,3.37-4.27,4.8-2.55,2.29-3.12,4.92-2.97,8.3.21,4.89-.36,9.81-.6,14.71-2.29-5.57.63-11.74-3.41-16.93-.32-.41.52-1.69.78-2.58.52-1.83,1.01-3.66,1.52-5.5,2.83-10.3,5.66-20.59,8.49-30.89.39.1.79.19,1.18.28-2.33,9.85-4.65,19.7-7.3,30.91,6.31-5.52,7.13-6.21,6.62-9.64-.92-6.2,1.02-11.78,3.02-17.35,2.75-7.65,8.3-11.88,15.25-11.88"/>
    <path class="cls-2" d="M332.82,303.47c2.49,8.43,4.23,16.53,7.31,24.08,2.82,6.91,5.34,13.68,5.4,21.22.05,6.89.22,13.78.5,20.67.13,3.01,1.77,6.41.83,8.92-3.32,8.86-7.38,17.46-11.36,26.06-.64,1.38-2.16,2.86-3.56,3.23-.12.03-.24.05-.37.05-1.08,0-2.47-1.09-3.75-1.63,9.7-7.97,12.29-12.28,14.16-24.63.79-5.16,1.23-10.39,1.49-15.61.62-12.71-.45-24.97-6.34-36.8-2.98-5.99-3.42-13.27-4.77-20.02-.33-1.64.25-3.46.44-5.55"/>
    <path class="cls-2" d="M130.48,715.75c.16.49.32.99.48,1.48-8.51,1.45-15.32,7.76-24.45,7.76-.15,0-.3,0-.45,0-.02,0-.04,0-.07,0-1.94,0-4.43,1.84-5.76,3.53-12.24,15.56-24.15,31.35-29.45,50.95-1.01,3.74-2.58,7.33-3.89,10.98-.54-.17-1.08-.34-1.62-.51.45-1.94.8-3.91,1.37-5.81,6.43-21.6,17.86-40.43,32.26-57.54,1.65-1.96,4.72-3.77,7.15-3.8,5.48-.06,10.21-2.05,15.11-3.9,3.07-1.15,6.22-2.1,9.33-3.14"/>
    <path class="cls-2" d="M267.76,471.84c2.08,4.29,3.45,8.89,5.64,13.06,2.19,4.18,5.35,7.84,7.79,11.9,1.2,2,2.13,4.33,2.52,6.62,2.68,15.81,3.18,31.77,1.5,47.65-.53,4.94-.95,10.77-5.69,14.42,1.35-6.18,3.42-12.32,3.81-18.56.64-10.17.26-20.42.1-30.63-.13-8.29-2.37-15.85-7.7-22.51-5.09-6.36-6.78-14.11-7.96-21.94M279.51,565.48c-.02.08-.03.16-.05.23l-.11-.11c.05-.04.11-.08.16-.12"/>
    <path class="cls-3" d="M371.42,614.66h.13c2.5.01,5.02.35,7.53.68.12.01.24.03.36.05.1.01.2.03.3.04.07,0,.13.02.2.03.99.12,1.79,1.77,2.68,2.71-.67.18-1.34.36-2,.54-2.13,1.26-4.34,2.4-6.36,3.81-.96.67-1.59,1.8-2.35,2.75-2.41,1.46-4.83,2.91-7.24,4.37l.25-.17c-2.17.58-4.35,1.15-6.52,1.74-.11.03-.22.06-.33.08-.35.08-.69.13-1,.13-.01,0-.03,0-.04,0-.03,0-.07,0-.1,0-.96-.03-1.69-.5-2.05-1.73-.01-.04-.02-.08-.03-.11-.01-.06-.03-.11-.04-.17,1.43-2.61,2.87-5.23,4.3-7.84,1.16-1.61,2.31-3.22,3.47-4.83.16-.09.32-.17.48-.25,2.71-1.37,5.51-1.81,8.33-1.81h.05M354.79,629.39s0,0,0,.01c0,0,0,0,0-.01"/>
    <path class="cls-2" d="M322.09,474.58c1.01,13.68,2.35,32.37,3.79,51.06.78,10.18,1.78,20.34,2.54,30.52.25,3.34.04,6.71.04,10.06-1.47-.6-1.89-1.21-1.86-1.81.8-13.35-.67-26.52-2.8-39.68-1.32-8.19-2.6-16.47-2.76-24.73-.19-10.16.81-20.34,1.06-25.42"/>
    <path class="cls-2" d="M337.33,610.13c.41,0,.81.05,1.19.17,5.03,1.61,10.19,2.46,15.33,2.46,2.43,0,4.86-.19,7.26-.59,1.59-.26,3.16-.36,4.71-.36,4.67,0,9.18.92,13.79,1.11,3.16.14,6.99-.14,10.6,3.45-3.16.74-5.38,1.26-7.6,1.77-.89-.94-1.69-2.58-2.68-2.71-.07,0-.13-.02-.2-.03-.1-.01-.2-.03-.3-.04-.12-.02-.24-.03-.36-.05-2.51-.32-5.03-.67-7.53-.68h-.18c-2.82,0-5.61.44-8.33,1.81-.16.08-.32.16-.48.25-.88-2-2.22-2.51-3.66-2.51-.72,0-1.47.13-2.2.25-.73.13-1.44.25-2.09.25h-.05c-7.22-.08-14.32-.23-21.06-3.63,1.26-.5,2.61-.96,3.84-.96"/>
    <path class="cls-2" d="M101.81,641.71c.14,0,.29,0,.44.01.47,4.21.93,8.42,1.58,14.29-1.01-3.05-1.49-4.48-1.96-5.9-5.48,14.99-12.87,27.61-29.67,31.33,1.74-1.44,3.76-2.48,5.79-3.49,6.81-3.37,12.55-8.12,15.58-15.09,2.34-5.37,3.56-11.25,4.99-16.97.49-1.98.18-4.18,3.26-4.18"/>
    <path class="cls-2" d="M279.38,565.64l.08.08c-.03.13-.06.26-.09.39,0-.16,0-.32,0-.47M279.37,566.11c0,2.41.34,4.92-.33,7.11-5.05,16.52-10.32,32.96-15.53,49.43.37-5.62,1-11.3,3.05-16.43,5.23-13.09,9.77-26.35,12.81-40.11"/>
    <path class="cls-2" d="M255.39,712.6c4.58,5.15,1.46,11.42,3.76,17.9,1.77-1.37,3.33-2.25,4.43-3.51,1.2-1.38,1.96-3.12,2.92-4.7v-.04c-.61,2.26-.62,5.06-2.02,6.64-1.5,1.69-4.31,2.21-6.74,3.34-.75,3.41-1.56,7.07-2.36,10.74-.37-3.67.24-7.17.54-10.7.28-3.31.39-6.66.29-9.99-.09-3.23-.54-6.46-.83-9.68"/>
    <path class="cls-2" d="M354.79,629.39h0s0,0,0,.01c-.05.1-.1.19-.16.29.05-.1.1-.19.16-.29.01.06.03.12.04.17,0,.04.02.08.03.11.36,1.23,1.09,1.7,2.05,1.73.03,0,.07,0,.1,0h.04c.31,0,.65-.05,1-.13.11-.02.22-.05.33-.08,2.17-.6,4.35-1.16,6.52-1.74-2.24,1.3-4.35,3.17-6.76,3.76-5.02,1.24-6.42,4.82-6.26,9.04.2,5,1.14,9.96,1.8,14.94-1.08-2.03-2.66-4.01-2.89-6.14-.44-4.19.11-8.47.02-12.71-.03-1.66-.66-3.3-.95-4.63,1.56-1.38,3.24-2.85,4.92-4.33M353.69,657.2c.06.12.13.24.19.36l-.12.14c-.02-.17-.04-.33-.06-.5"/>
    <path class="cls-2" d="M353.87,657.56c.06.33.11.66.15,1-.1-.28-.2-.56-.29-.84l.02-.02.12-.14ZM354.03,658.56c4.43,12.28,13.9,20.88,22.7,29.96-7.5-4.26-18.58-16.09-21.36-22.87-.9-2.18-1.01-4.68-1.34-7.09"/>
    <path class="cls-3" d="M359.64,726.93c1.32,1.15,1.8,2.16,1.79,3.1,0,2.02-2.28,3.67-3.21,5.55l-.19.27c-.28.56-.54,1.07-.78,1.54-.01.03-.03.05-.04.08-1.56,3.07-2.39,4.33-3.69,4.35h-.04s-.03,0-.05,0c-.81-.02-1.81-.49-3.29-1.3-.05-.03-.1-.05-.15-.08-.09-.05-.19-.11-.29-.16-.13-.07-.26-.15-.4-.22-.07-.04-.14-.08-.21-.12.82-1.13,1.62-2.22,2.43-3.32,2.7-3.23,5.4-6.46,8.1-9.69"/>
    <path class="cls-2" d="M265.59,681.18c.03.16.05.32.07.48-.02-.16-.05-.32-.07-.48M265.66,681.66c.44,3.05,1.01,6.08,1.22,9.14.22,3.3.05,6.63.05,9.95h-.26c-.31-2.08-.62-4.16-.95-6.38-1.89-.42-3.59-.79-6.05-1.34,2.78-3.83,6.53-6.65,6-11.38"/>
    <path class="cls-2" d="M380.61,618.7h0c-.33,1.06-.66,2.12-1.02,3.27.29.13.6.19.92.19.64,0,1.32-.22,2-.44.68-.22,1.35-.44,1.97-.44.93,0,1.74.5,2.27,2.24-1.47,2.37-3.39,2.97-5.47,2.97-1.33,0-2.72-.25-4.1-.42-1.78-.23-3.57-.47-5.35-.7.03-.03.06-.07.08-.1.06-.04.12-.07.18-.11-.06.04-.12.07-.18.11.76-.95,1.39-2.08,2.35-2.75,2.02-1.41,4.23-2.56,6.36-3.81"/>
    <path class="cls-2" d="M313.81,654.64h0l.05.07h0s.02.03.02.03c-.08.14-.16.28-.25.43.05-.17.11-.35.17-.52M313.64,655.16c-2.48,7.82-3.55,16.16-8.83,24.47-.67-3.26-1.07-5.19-1.22-5.91,1.78-1.39,3.36-2,3.79-3.07,1.31-3.27,2.02-6.79,3.28-10.09.72-1.9,1.94-3.62,2.99-5.4"/>
    <path class="cls-2" d="M370.52,715.98c-2.79,5.88-5.92,11.4-9.23,16.82-.69,1.13-2.02,1.87-3.06,2.78.93-1.87,3.2-3.52,3.21-5.55,0-.94-.48-1.95-1.8-3.1,3.83-3.43,5.85-8.73,10.88-10.96"/>
    <path class="cls-2" d="M246.73,574.89c.75,0,1.54.13,2.4.44-.95,3.12-1.81,5.96-2.59,8.54-2.51-1.48-5.13-3.03-8.78-5.19,3.54-1.56,5.91-3.79,8.97-3.79"/>
    <path class="cls-2" d="M327.05,574.96c1.15,11.18-1.32,22.03-3.86,32.9,1.29-10.97,2.57-21.93,3.86-32.9"/>
    <path class="cls-2" d="M350.36,684.16c-.42,7.29-.79,13.68-1.16,20.08-.38-.05-.76-.09-1.14-.14,0-3.51-.03-7.02,0-10.53.05-4.92.54-7.77,2.29-9.41"/>
    <path class="cls-2" d="M218.98,463c1.52,5.2,3.58,12.13,5.57,19.07.45,1.56.76,3.17,1.11,4.76-4.93-7.91-7.64-16.33-6.68-23.83M225.66,486.83c.1.16.21.33.31.49l-.16.18c-.05-.22-.1-.45-.15-.67"/>
    <path class="cls-3" d="M214.47,666.97c.44.19.88.38,1.32.58-.59,3.39-.98,6.83-1.9,10.13-.25.9-2.08,1.35-3.18,2.01-.44-.82-.88-1.63-1.32-2.45.09-.86.17-1.73.26-2.59,1.6-2.56,3.21-5.11,4.81-7.67"/>
    <path class="cls-2" d="M222,602.53c-3.5,5.18-7.01,10.47-10.66,15.65-.65.92-1.76,1.51-2.73,2.21,3.05-6.78,9.49-15.35,13.39-17.86M208.61,620.38c-.06.13-.12.26-.17.39l-.15-.15c.11-.08.21-.16.32-.24"/>
    <path class="cls-2" d="M260.43,633.24c.3.04.61.08.91.12-.23,5.07-.46,10.14-.69,15.35-.88.24-1.88.52-3.35.93,1.1-5.77,2.12-11.08,3.13-16.39"/>
    <path class="cls-2" d="M234.22,530.93c.81,0,1.61.59,2.29,1.99,2.13,4.39,3.5,9.14,5.2,13.74-2.06-1.94-2.83-4.37-3.92-6.65-1.4-2.93-2.81-5.98-6.45-6.75.85-1.42,1.88-2.33,2.89-2.33M231.07,533.21s.06,0,.08.01c.06.01.12.02.18.04-.03.05-.05.09-.08.14l-.18-.19Z"/>
    <path class="cls-2" d="M225.97,487.32c.04.25.07.51.11.76-.09-.19-.19-.38-.28-.57h0s.16-.19.16-.19ZM226.08,488.08c2.67,5.49,5.34,10.96,8.02,16.44-5.47-4.13-7.07-10.12-8.02-16.44M234.1,504.52c.11.08.22.16.33.25l-.15.14c-.06-.13-.13-.26-.19-.38"/>
    <path class="cls-2" d="M203.05,632c.22,0,.45.02.7.07-2.63,4.43-5.28,8.83-7.93,13.24-.84,1.38-1.23,3.31-3.2,3.31-.19,0-.39-.02-.61-.06,2.69-4.7,5.46-9.37,8.04-14.13.76-1.41,1.53-2.43,3-2.43M203.76,632.06l.06.02s-.05,0-.07-.01c0,0,0,0,0,0M191.88,648.54s.09.02.13.02c-.01.03-.03.05-.04.08l-.09-.1Z"/>
    <path class="cls-2" d="M248.56,592.44c.86,5.73,1.71,11.46,2.57,17.19-.27.04-.54.09-.81.13-.97-5.73-1.94-11.46-2.92-17.19.39-.04.77-.08,1.16-.12"/>
    <path class="cls-2" d="M191.91,648.58l.06.07s-.02.04-.03.07c0-.04-.02-.09-.02-.13M191.93,648.71c1.12,6.55-3.84,10.34-7.03,14.93,2.34-4.98,4.68-9.95,7.03-14.93"/>
    <path class="cls-2" d="M320.46,620.53c.57.14,1.15.28,1.72.41-1.54,5.08-3.08,10.16-4.63,15.23.97-5.22,1.94-10.43,2.91-15.65M317.55,636.18c-.1.55-.2,1.09-.31,1.64l-.14-.16c.15-.49.3-.99.45-1.48"/>
    <path class="cls-2" d="M165.28,690.99l.16.17c-.17.04-.34.08-.51.13.12-.1.23-.2.34-.3M164.93,691.29c-3.48,3.01-6.96,6.03-10.45,9.04,2.71-4,5.66-7.71,10.45-9.04"/>
    <path class="cls-2" d="M131.61,364.89v.02s0,0,0,0c0,0,0-.02,0-.03M131.62,364.92c1.8,8.43.52,13.31-4.54,15.68,4.25-4.75,4.38-10.22,4.54-15.68"/>
    <path class="cls-2" d="M234.43,504.77c.03.09.06.17.09.25-.08-.04-.16-.08-.24-.11l.15-.14ZM234.52,505.02c2.91,1.46,3.22,4.29,2.86,6.93-.49,3.56-1.65,7.02-2.55,10.5-.16-.87-.5-1.8-.22-2.48,2.11-5.04,1.69-9.99-.09-14.95M234.83,522.45c.02.1.03.19.04.29h0s-.09-.11-.09-.11c.02-.06.03-.12.05-.18"/>
    <path class="cls-2" d="M299.34,733.84c.06,2.46-1.53,4.03-3.84,5.14,1.45-1.93,2.79-3.74,3.84-5.14M295.5,738.97c-.67.89-1.35,1.81-2.04,2.73-.48-.49-.97-.98-1.45-1.47,1.25-.35,2.45-.75,3.49-1.25"/>
    <path class="cls-2" d="M317.11,637.67l.13.15c-.12.35-.24.71-.37,1.06.08-.4.15-.81.23-1.21M316.88,638.88c-1,5.24-2.02,10.47-3.05,15.66-1.2-5.68,1.25-10.61,3.05-15.66M313.83,654.54c.01.05.02.11.03.16h0s-.05-.07-.05-.07c0-.03.01-.06.02-.1"/>
    <path class="cls-2" d="M180.63,674.74l.12.1c-.09.02-.18.04-.27.05.05-.05.1-.11.14-.16M180.48,674.89c-2.54,2.75-5.08,5.51-7.61,8.26,1.6-3.61,3.13-7.28,7.61-8.26M172.87,683.15c-.09.21-.18.41-.27.62l-.15-.15c.14-.15.29-.31.43-.46"/>
    <path class="cls-2" d="M110.92,514.69l.2.21c-.11.04-.21.07-.32.11.04-.1.08-.21.13-.32ZM110.8,515.01c-.98,2.37-2.62,3.53-5.21,3.53-.35,0-.72-.02-1.1-.06,1.19-3.67,4.11-2.84,6.31-3.46"/>
    <path class="cls-2" d="M208.29,620.63l.15.14c-.13.16-.26.31-.39.47.08-.2.16-.41.24-.61M208.05,621.24c-1.41,3.6-2.83,7.2-4.27,10.76-1.42-4.78,1.68-7.66,4.27-10.76M203.78,632.01v.05s-.02,0-.02,0c0-.02.01-.03.02-.05"/>
    <path class="cls-2" d="M344.12,602.15c.22.47.44.94.66,1.41-1.7.31-2.76,2.3-5.35,2.3-.67,0-1.43-.13-2.34-.46,3.18-1.47,5.1-2.36,7.03-3.25"/>
    <path class="cls-2" d="M172.45,683.62l.15.15-.2.21c.02-.12.04-.23.05-.35M172.4,683.98c-.64,3.81-3.27,5.69-6.63,6.85,2.21-2.28,4.42-4.57,6.63-6.85M165.76,690.83c-.11.11-.21.22-.32.33l-.17-.17c.16-.05.33-.11.49-.16"/>
    <path class="cls-2" d="M380.48,692.41c2.27,1.71,4.54,3.41,6.81,5.12h.01c-.62.17-1.17.25-1.67.25-3,0-4.06-2.7-5.15-5.37"/>
    <path class="cls-2" d="M199,739.13c.25.61.8,1.69.7,1.76-.96.63-2.04,1.08-3.08,1.58-.28-.53-.57-1.07-.85-1.6,1.08-.58,2.15-1.16,3.23-1.74"/>
    <path class="cls-2" d="M359.09,621.56c-1.43,2.61-2.87,5.22-4.3,7.84-.05.1-.11.19-.16.29.05-.1.11-.19.16-.29,1.43-2.61,2.87-5.23,4.3-7.84"/>
    <path class="cls-2" d="M372.08,625.15c-.06.04-.12.07-.18.11-2.41,1.46-4.83,2.91-7.24,4.37,2.41-1.46,4.83-2.91,7.24-4.37.06-.04.12-.07.18-.11"/>
    <path class="cls-2" d="M263.47,667.27c.13.08.37.15.38.25.08,1.13.13,2.25.17,3.38,0,.12-.18.25-.27.37-.08-.2-.23-.4-.24-.61-.03-1.13-.03-2.26-.04-3.39"/>
    <path class="cls-2" d="M266.51,714.14c.16,0,.31.01.47.02-.15,2.7-.31,5.4-.46,8.09v.02s0-8.14,0-8.14Z"/>
    <path class="cls-2" d="M179.02,740.46c2.19,2.27,2.49,3.71-2.15,4.19.94-1.84,1.5-2.93,2.15-4.19"/>
    <path class="cls-2" d="M182.34,669.93c-.56,1.59-1.13,3.17-1.7,4.76-1.19-2.04-.75-3.66,1.7-4.76M180.64,674.69s.05.08.07.12l-.09-.07.02-.05"/>
    <path class="cls-3" d="M153.85,585.25c4.74,3.53,6.68,5.47,6.68,8.58,0,1.87-.7,4.15-1.91,7.46-1.47,4.02-2.85,8.09-3.94,12.22-.96,3.65-2.84,6.37-6.6,8.56-3.02-6.68-4.64-12.71-4.63-18.07.02-7.58,3.28-13.84,10.4-18.76"/>
    <path class="cls-3" d="M151.59,559.73c3.54,4.62,5.24,7.84,5.23,10.77,0,2.43-1.17,4.66-3.42,7.33-2.34-3.07-3.28-6.23-3.29-9.63,0-2.65.56-5.45,1.47-8.47"/>
    <path class="cls-3" d="M211.64,687.45h0c-.83,6.91-1.44,11.95-2.08,17.29-1.57-.32-2.68-.54-3.78-.76-1.17-2.2-2.34-4.42-3.83-7.23,2.88-2.76,5.66-5.43,9.69-9.3M205.67,703.96s.07.01.11.02c.03.06.07.13.1.19l-.21-.21Z"/>
    <path class="cls-3" d="M315.82,728.11c8.73,4.53,17.43,9.05,26.6,13.81-1.32,1.54-2.49,2.9-3.66,4.26h.04c.08,0,.15,0,.23,0-1.96,1.97-3.92,3.94-5.88,5.91,1.96-1.97,3.92-3.94,5.88-5.91-1.96,1.97-3.92,3.94-5.88,5.91-.9.41-1.81.83-2.71,1.24-2.16,1.73-4.31,3.46-6.47,5.19-1.08.87-2.17,1.74-3.25,2.6-.58.23-1.09.34-1.54.34-1.64,0-2.5-1.39-3.23-3.01-.84-7.03-1.63-14.06-2.54-21.08-.16-1.22-.36-2.45-.36-3.64,0-1.99.54-3.91,2.77-5.61M339.05,746.15l-.02.02.02-.02"/>
    <path class="cls-3" d="M339.05,746.15h0s-.01.01-.02.02c0,0,.01-.01.02-.02M339.05,746.15s-.01.01-.02.02h-.26l.28-.02ZM342.69,746.16c.14.94.21,1.84.21,2.71-.02,4.4-1.85,8-4.81,11.22.35.12.6.26.78.41.78.67.03,1.6-.54,2.49-1.19,1.85-2.38,3.69-3.57,5.53-4.68,3.37-9.36,6.74-14.55,10.48-2.48-6.49-5.44-12.26.51-17.89,1.08-.87,2.17-1.74,3.25-2.6,2.16-1.73,4.32-3.46,6.47-5.19.9-.41,1.81-.83,2.71-1.24,1.96-1.97,3.92-3.94,5.88-5.91,1.23,0,2.46,0,3.66,0M327.62,766.3c3.97-.96,6.98-3.52,9.98-6.13-4.47.02-6.94,3.58-9.98,6.13"/>
    <path class="cls-2" d="M637.6,787.27h.71c-.06.55-.12,1.11-.19,1.66-.42,3.38-1.36,6.69-1.7,10.07-.41,4.08.74,5.41,4.88,5.53.53.01,1.07.02,1.6.02,3.45,0,6.9-.27,10.35-.33,1.44-.02,2.12-.8,2.57-1.98.29-.77.51-1.56.83-2.32,1.23-2.94,3.27-4.73,6.45-4.73.2,0,.41,0,.63.02.27.02.53.03.79.03,1.78,0,3.44-.44,4.93-1.43.74-.49,1.44-.71,2.13-.71.83,0,1.64.31,2.46.84,2.02,1.3,4.21,1.65,6.46,1.65.79,0,1.59-.04,2.39-.1.82-.06,1.64-.29,2.45-.29.12,0,.23,0,.35.01.32.03.64.04.94.04,4.05,0,6.63-2.49,8.88-5.63.46-.65,1.01-1.23,1.53-1.84-.69,1.34-1.4,2.66-2.03,4.03-.09.2.23.58.4.91-.01,0-.03,0-.04,0l.08.09s0,0,0,0l-.08-.09c-1.91,2.67-4.88,3-7.76,3.34-2.33.27-4.71.16-7.07.3-.36.02-.72.03-1.07.03-2.13,0-4.16-.39-6.13-1.39-.62-.31-1.5-.61-2.22-.61-.28,0-.54.05-.74.15-2.62,1.37-5.34,1.55-8.2,1.7-3.71.2-6.5,5.9-4.64,9.11,1.79,3.07,2.9,6.2,1.07,9.67-.94,1.78.1,2.99,1.36,3.9,1.62,1.18,1.79,2.64,1.31,4.37-.7,2.49-1.53,4.96-2.04,7.49-.42,2.02-1.03,3.83-2.53,5.31-.57.56-.96,1.29-1.4,1.89,1.48,2.34,3.05,3.44,5.2,3.44.97,0,2.06-.22,3.3-.66,1.85-.65,3.62-1.48,5.84-2.41-3.29,2.51-6.02,3.75-8.7,3.75-2.31,0-4.58-.92-7.16-2.74-.55,1.33-1.22,2.54-1.56,3.83-.74,2.84-1.4,5.72-1.93,8.61-.4,2.19-.69,4.43-.74,6.66-.08,3.99.47,8.03.02,11.96-.59,5.21,4.29,11.02,8.84,11.86,3.92.72,7.75,1.92,11.63,2.89.53.13,1.09.16,1.43.21,2.72-3.88,5.27-7.53,7.91-11.3-1.5-1.73-2.85-3.28-4.57-5.27,1.43-.6,2.48-.97,3.46-1.47,2.14-1.1,4.86-1.13,6.37-3.41.22.4.43.81.65,1.21.54-.33,1.45-.55,1.57-1,.45-1.63.65-3.33.94-5.01-.22-.1-.44-.19-.65-.28-.79,1.27-1.59,2.53-2.38,3.79,1.27-5.01,2.71-8.26,4.27-9.23-.25,3.72-.49,7.29-.72,10.65.28.14.57.19.84.19.25,0,.49-.04.73-.07.24-.04.47-.07.69-.07.51,0,.95.19,1.29,1.03-.56.33-1.09.78-1.7.99-2.3.77-3.4,2.32-3.48,4.74-.08,2.46-.3,4.92-.48,7.38-.05.75-.15,1.49-.22,2.24-.22.08-.43.16-.65.24-.83-1.18-1.67-2.35-2.5-3.53-.85-.67-1.71-1.36-2.84-2.25-2.49,4.2-5.19,7.84-6.12,12.41.33.27.6.49.87.71,2.84,2.25,2.92,2.52,1.36,5.9-.59,1.28-1.32,2.5-1.92,3.78-2.1,4.47-4.48,8.86-4.42,14.02.04,3.18.07,6.36.12,9.54.09,5.24,3.4,8.37,7.46,10.81.73.44,1.37.65,1.96.65,1.12,0,2.05-.76,3.05-2.11,1.11-1.5,2.27-3.11,3.77-4.15,3.28-2.26,6.79-4.17,10.2-6.23-1.85,2.91-4.95,4.15-7.75,5.77-2.25,1.31-4.28,2.78-5.49,5.55.17.02.34.03.5.03,2.6,0,4.13-2.13,6.28-2.62-2.14,1.38-4.31,2.73-6.43,4.15-.95.64-2.11,1.24-2.63,2.17-5.11,9.15-10.36,18.28-13.2,28.44-1.46,5.22-3.93,9.5-8.1,12.88-.63.51-1.01,1.33-1.96,2.64,1.74,0,3.21.07,4.57.07.99,0,1.92-.04,2.84-.17.92-.13,1.86-1.22,2.48-2.1,1.87-2.63,3.58-5.37,5.36-8.07.19.11.38.23.57.34-.6,1.18-1.2,2.36-1.8,3.55.45.15.8.27,1.33.46-1.14.79-2.37,1.26-2.98,2.16-.65.95-.65,2.32-1.06,3.46-.19.53-.73.91-1.04,1.41-.49.8-1.02,1.59-1.35,2.46-2.13,5.47-4.26,10.94-6.29,16.45-2.29,6.22-5.41,12.01-8.79,17.67-.89,1.5-1.95,3.02-3.27,4.14-5.32,4.51-10.12,9.51-14.58,14.86-1.21,1.45-2.76,2.62-4.15,3.92-.26-.28-.52-.55-.78-.83,1.4-1.2,2.92-2.29,4.19-3.61,4.74-4.91,9.41-9.88,14.06-14.87,1.36-1.45,2.81-2.89,3.83-4.57,5.45-8.98,9.76-18.51,13.18-28.44.69-2.01,1.32-4.05,2.09-6.45-1.99.45-3.35.76-4.7,1.06.02-.02.05-.05.07-.08-1.01.53-2.01,1.45-3.01,1.46-3.01.02-4.58,1.86-6.11,4.01-.95,1.34-2,2.6-3.08,3.83-.48.54-1.14.92-2.07,1.63-.2-1.98-.34-3.47-.49-4.95-.54-.76-1.19-1.18-1.99-1.18-.32,0-.66.07-1.03.2,1.08-.78,1.83-1.72,1.6-3.16.02,0,.03,0,.05,0-.55-1.16-1.11-2.33-1.82-3.83-1.21,1.6-2.15,2.85-3.1,4.1.02-.23-.04-.51.06-.69.78-1.45,2.05-2.83,2.24-4.35.19-1.55-.67-3.23-1.14-5.15.76.2,1.4.3,1.98.53,2.78,1.08,5.56,2.19,8.32,3.32.68.28,1.3.4,1.87.4,2,0,3.35-1.52,4.56-3.17,1.32-1.8,2.33-3.82,3.56-5.69.32-.48,1.01-1.17,1.4-1.17.02,0,.05,0,.07,0,.31.08.58.12.81.12,1.45,0,1.52-1.47,1.87-2.52.87-2.56,1.33-5.3,2.46-7.72,3.38-7.25,7.01-14.38,10.53-21.56.39-.79.7-1.62,1.05-2.46-7-2.01-11.47-7.51-11.18-14.66.09-2.12-.17-4.26.02-6.36.23-2.55.39-5.21,1.25-7.59,1.48-4.08,3.48-7.97,5.27-11.94.53-1.19,1.17-2.36-.08-3.54-.68-.64-1.35-.98-2.03-.98-.63,0-1.26.29-1.91.88-.01.01-.03.02-.06.02-.13,0-.44-.16-.82-.29-.16-.97-.33-2.05-.55-3.41-3.81-.94-7.57-1.84-11.32-2.79-6.69-1.7-8.98-3.7-9.64-9.9-.62-5.82-.15-11.76-.07-17.64.02-1.4.39-2.79.66-4.18.29-1.5.62-3,.99-4.49.75-3.05.59-6.39,2.88-8.95-.72-3.07-1.54-6.13-2.15-9.23-.58-2.93.19-5.61,2.05-7.96.58-.74,1.17-1.48,1.8-2.18,1.04-1.17,1.47-2.33.41-3.78-1.57-2.16-1.65-4.57-1.04-7.1.23-.96.2-1.99.3-3.23-1.51.08-2.67.12-3.82.19-2.7.17-5.39.41-8.09.53-.31.01-.6.02-.88.02-6.28,0-7.13-3.26-6.02-8.52.69-3.24,1.15-6.54,1.72-9.81M658.68,811.17c0-1.45-.84-3.04-2.59-5.33-.45,1.49-.73,2.88-.73,4.19,0,1.68.47,3.25,1.63,4.76,1.11-1.32,1.69-2.42,1.69-3.62M660.51,822.71c0-1.54-.96-2.5-3.3-4.24-3.52,2.43-5.13,5.52-5.14,9.28,0,2.65.79,5.63,2.28,8.94,1.86-1.08,2.79-2.42,3.26-4.23.54-2.04,1.22-4.06,1.95-6.04.6-1.63.94-2.76.94-3.69M685.07,866.86h-.04c-1.53.02-2.37,1.02-3.2,2,0,0,0,0-.01.02-.03.03-.05.06-.08.09-.05-.07-.09-.16-.14-.26-.21-.39-.44-.86-.53-.86,0,0,0,0,0,0h0c-1.17.34-2.3.8-4.17,1.5.02.01.04.02.06.03.02,0,.03.02.05.03.01,0,.02.01.03.02.08.04.15.09.21.15.07.05.13.11.19.16.03.03.06.07.1.1.74.82.9,2.06,1.8,2.09h.03s.08,0,.13,0c.29-.03.66-.18,1.13-.49.02-.01.04-.03.07-.04.19,0,.42.04.63.07.09,0,.17.02.25.02,0,0,.02,0,.03,0,.03,0,.06,0,.08,0,.03,0,.05,0,.08,0,0,0,.02,0,.02,0,.05,0,.09-.02.13-.05.02,0,.03-.02.05-.04,1.4-1.31,2.71-2.7,4.32-4.34-.03,0-.06-.01-.08-.02h0c-.07-.02-.14-.03-.2-.05-.32-.07-.61-.1-.88-.1h-.03M685.76,869.01h0c-1.99,1.91-3.36,3.23-4.78,4.6.73,1.39,1.31,2.49,1.89,3.57-.02,0-.04,0-.06-.01l.11.11s-.03-.06-.05-.09c.54.11,1.09.22,1.87.38.32-2.64.62-5.13,1.03-8.55M646.73,984.15c.23,0,.43-.04.59-.14,1.92-1.28,3.7-2.77,5.97-4.53-3.02-.97-5.49-1.77-8.09-2.61-1.89,2.55.17,4.82.05,7.09.48.04,1.03.18,1.48.18M648.04,990.12c3.49-2.59,5.41-6.01,7.4-9.38-.18-.21-.37-.41-.55-.62-2.47,1.64-4.94,3.3-7.43,4.93-1.25.82-.91,2-.81,3.14.43.59.86,1.2,1.39,1.93M661.35,982.09c.29-.3.58-.6.86-.89-1.2-.59-2.17-.91-3-.91-1.32,0-2.3.79-3.37,2.58,2.1-.3,3.81-.54,5.51-.78"/>
    <rect class="cls-1" x="69.55" y="239.93" width="737.2" height="1042.61"/>
  </g>
  <path class="cls-2" d="M617.78,26.67h-.57c.05.45.1.9.16,1.34.34,2.73,1.1,5.41,1.37,8.14.33,3.3-.6,4.37-3.94,4.46-.43.01-.86.02-1.29.02-2.78,0-5.57-.22-8.36-.27-1.16-.02-1.72-.64-2.08-1.6-.24-.62-.41-1.26-.67-1.88-1-2.37-2.64-3.82-5.21-3.82-.17,0-.33,0-.51.02-.21.01-.43.02-.64.02-1.44,0-2.78-.36-3.98-1.16-.6-.4-1.17-.57-1.72-.57-.67,0-1.33.25-1.99.68-1.63,1.05-3.4,1.33-5.21,1.33-.64,0-1.28-.03-1.93-.08-.66-.05-1.33-.23-1.98-.23-.1,0-.19,0-.28.01-.26.02-.51.04-.76.04-3.27,0-5.35-2.01-7.17-4.55-.37-.52-.81-1-1.24-1.49.56,1.08,1.13,2.15,1.64,3.25.07.16-.18.47-.32.73.01,0,.02,0,.03,0l-.07.07s0,0,0,0l.07-.07c1.54,2.16,3.94,2.42,6.27,2.7,1.89.22,3.81.13,5.71.24.29.02.58.03.87.03,1.72,0,3.36-.32,4.95-1.12.5-.25,1.21-.49,1.79-.49.23,0,.43.04.6.12,2.11,1.11,4.31,1.25,6.62,1.38,3,.16,5.25,4.77,3.74,7.36-1.44,2.48-2.34,5.01-.87,7.81.76,1.44-.08,2.41-1.1,3.15-1.31.95-1.45,2.13-1.06,3.53.56,2.01,1.23,4,1.65,6.05.34,1.63.83,3.1,2.04,4.29.46.45.78,1.04,1.13,1.53-1.19,1.89-2.47,2.78-4.2,2.78-.78,0-1.66-.18-2.67-.53-1.49-.52-2.93-1.2-4.72-1.94,2.66,2.02,4.86,3.03,7.02,3.03,1.86,0,3.7-.74,5.78-2.21.45,1.07.99,2.05,1.26,3.09.6,2.3,1.13,4.62,1.56,6.95.32,1.77.56,3.58.6,5.38.06,3.22-.38,6.48-.02,9.66.47,4.21-3.47,8.9-7.14,9.57-3.17.58-6.26,1.55-9.39,2.33-.43.11-.88.13-1.15.17-2.19-3.14-4.25-6.08-6.38-9.12,1.21-1.4,2.3-2.65,3.69-4.26-1.16-.49-2-.78-2.8-1.19-1.73-.89-3.93-.91-5.14-2.75-.18.33-.35.65-.53.98-.44-.26-1.17-.45-1.27-.8-.37-1.32-.52-2.69-.76-4.04.18-.08.35-.15.53-.23.64,1.02,1.28,2.04,1.92,3.06-1.02-4.05-2.19-6.67-3.44-7.46.2,3.01.4,5.88.58,8.6-.23.12-.46.15-.68.15-.2,0-.4-.03-.59-.06-.19-.03-.38-.06-.56-.06-.41,0-.77.16-1.04.83.45.27.88.63,1.38.8,1.86.62,2.74,1.87,2.81,3.83.07,1.99.24,3.97.38,5.96.04.61.12,1.21.18,1.81.17.06.35.13.52.19.67-.95,1.35-1.9,2.02-2.85.69-.55,1.38-1.1,2.29-1.82,2.01,3.39,4.19,6.33,4.94,10.02-.27.22-.48.4-.7.57-2.29,1.82-2.36,2.03-1.1,4.76.48,1.04,1.06,2.02,1.55,3.05,1.7,3.61,3.62,7.16,3.57,11.32-.03,2.57-.05,5.14-.1,7.7-.08,4.24-2.75,6.76-6.02,8.73-.59.36-1.11.52-1.58.52-.9,0-1.65-.61-2.46-1.7-.9-1.21-1.83-2.51-3.05-3.35-2.64-1.82-5.48-3.37-8.23-5.03,1.49,2.35,4,3.35,6.25,4.66,1.82,1.06,3.45,2.25,4.43,4.48-.14.01-.27.02-.4.02-2.1,0-3.34-1.72-5.07-2.12,1.73,1.11,3.48,2.2,5.2,3.35.76.51,1.71,1,2.12,1.75,4.13,7.39,8.36,14.76,10.66,22.96,1.18,4.21,3.17,7.67,6.54,10.4.51.41.81,1.08,1.58,2.13-1.4,0-2.59.06-3.69.06-.8,0-1.55-.03-2.29-.13-.74-.11-1.5-.99-2-1.69-1.51-2.12-2.89-4.34-4.33-6.52-.15.09-.31.18-.46.28.48.95.97,1.91,1.46,2.87-.36.12-.65.22-1.08.37.92.64,1.91,1.02,2.41,1.74.52.76.52,1.87.86,2.79.15.43.59.74.84,1.14.4.64.82,1.29,1.09,1.99,1.72,4.42,3.44,8.84,5.08,13.29,1.85,5.02,4.37,9.7,7.1,14.27.72,1.21,1.57,2.44,2.64,3.34,4.3,3.64,8.17,7.68,11.77,12,.98,1.17,2.23,2.12,3.35,3.17.21-.22.42-.45.63-.67-1.13-.97-2.36-1.85-3.39-2.92-3.82-3.97-7.6-7.98-11.35-12.01-1.1-1.17-2.27-2.34-3.09-3.69-4.4-7.25-7.88-14.95-10.64-22.97-.56-1.63-1.06-3.27-1.69-5.21,1.61.36,2.7.61,3.8.86-.02-.02-.04-.04-.06-.06.81.43,1.62,1.17,2.43,1.18,2.43.02,3.7,1.5,4.93,3.24.76,1.08,1.61,2.1,2.49,3.1.39.44.92.74,1.67,1.32.16-1.6.28-2.8.4-4,.43-.61.96-.95,1.61-.95.26,0,.53.05.83.16-.87-.63-1.48-1.39-1.29-2.55-.01,0-.03,0-.04,0,.45-.94.89-1.88,1.47-3.09.98,1.29,1.74,2.3,2.51,3.31-.01-.19.03-.41-.05-.56-.63-1.17-1.66-2.29-1.81-3.51-.16-1.25.54-2.61.92-4.16-.61.16-1.13.24-1.6.43-2.25.88-4.49,1.77-6.72,2.68-.55.22-1.05.32-1.51.32-1.61,0-2.71-1.23-3.68-2.56-1.07-1.45-1.88-3.09-2.88-4.59-.26-.39-.82-.94-1.13-.94-.02,0-.04,0-.06,0-.25.07-.46.1-.65.1-1.17,0-1.22-1.19-1.51-2.03-.71-2.07-1.07-4.28-1.99-6.24-2.73-5.85-5.66-11.61-8.5-17.41-.31-.64-.56-1.31-.85-1.99,5.65-1.62,9.26-6.07,9.03-11.83-.07-1.71.13-3.44-.02-5.14-.19-2.06-.32-4.21-1.01-6.13-1.2-3.29-2.81-6.43-4.25-9.64-.43-.96-.94-1.91.07-2.86.55-.52,1.09-.79,1.64-.79.51,0,1.02.23,1.54.71.01.01.03.01.05.01.11,0,.35-.13.66-.23.13-.79.27-1.66.44-2.75,3.08-.76,6.11-1.48,9.14-2.25,5.4-1.37,7.25-2.98,7.79-7.99.5-4.7.12-9.49.05-14.24-.02-1.13-.32-2.26-.53-3.37-.24-1.21-.5-2.42-.8-3.62-.6-2.46-.48-5.16-2.32-7.23.58-2.48,1.24-4.95,1.74-7.45.47-2.37-.16-4.53-1.65-6.43-.47-.6-.95-1.19-1.45-1.76-.84-.95-1.19-1.88-.33-3.06,1.27-1.74,1.33-3.69.84-5.73-.19-.78-.16-1.61-.25-2.61,1.22.06,2.15.1,3.09.16,2.18.14,4.35.34,6.53.43.25.01.48.02.71.02,5.07,0,5.76-2.63,4.86-6.88-.55-2.62-.93-5.28-1.39-7.92M600.76,45.96c0-1.17.67-2.46,2.09-4.3.36,1.21.59,2.32.59,3.38,0,1.36-.38,2.62-1.31,3.85-.9-1.07-1.36-1.96-1.36-2.93M599.28,55.28c0-1.24.77-2.02,2.67-3.43,2.84,1.96,4.14,4.46,4.15,7.49,0,2.14-.64,4.54-1.85,7.21-1.5-.88-2.25-1.96-2.63-3.42-.43-1.65-.98-3.28-1.57-4.88-.48-1.32-.76-2.23-.76-2.98M579.44,90.93h.03c1.24.01,1.91.83,2.58,1.62,0,0,0,0,.01.01.02.02.04.05.06.07.04-.06.08-.13.12-.21.17-.31.35-.7.43-.7,0,0,0,0,0,0h0c.94.27,1.86.65,3.36,1.21-.02,0-.03.02-.05.03-.01,0-.03.01-.04.02,0,0-.02.01-.03.02-.06.04-.12.08-.17.12-.05.04-.1.09-.15.13-.03.03-.05.05-.08.08-.6.66-.73,1.66-1.45,1.68h-.02s-.07,0-.1,0c-.24-.03-.53-.15-.91-.4-.02-.01-.03-.02-.05-.04-.15,0-.34.04-.51.05-.07,0-.14.01-.2.01,0,0-.01,0-.02,0-.02,0-.05,0-.07,0-.02,0-.04,0-.06,0,0,0-.01,0-.02,0-.04,0-.07-.02-.1-.04-.01,0-.03-.02-.04-.03-1.13-1.05-2.19-2.18-3.49-3.51.02,0,.04-.01.07-.02h0c.06-.01.11-.03.16-.04.26-.05.49-.08.71-.08h.03M578.89,92.67h0c1.61,1.54,2.72,2.61,3.86,3.71-.59,1.12-1.06,2.01-1.53,2.89.02,0,.03,0,.04,0l-.08.09s.03-.05.04-.08c-.44.09-.88.18-1.51.3-.26-2.13-.5-4.14-.83-6.9M610.4,185.64c-.18,0-.35-.03-.48-.12-1.55-1.03-2.98-2.24-4.82-3.65,2.44-.78,4.43-1.43,6.54-2.1,1.53,2.06-.14,3.89-.04,5.73-.39.03-.83.15-1.2.15M609.35,190.46c-2.82-2.09-4.37-4.86-5.97-7.57.15-.17.3-.33.45-.5,2,1.33,3.99,2.66,6,3.98,1.01.66.74,1.62.66,2.54-.35.48-.7.96-1.13,1.56M598.6,183.98c-.23-.24-.47-.48-.7-.72.97-.47,1.75-.73,2.43-.73,1.06,0,1.86.64,2.72,2.08-1.7-.24-3.08-.44-4.45-.63"/>
  <path class="cls-2" d="M1869.68,197.28h-.57c.05.45.1.9.16,1.34.34,2.73,1.1,5.41,1.37,8.14.33,3.3-.6,4.37-3.94,4.46-.43.01-.86.02-1.29.02-2.78,0-5.57-.22-8.36-.27-1.16-.02-1.72-.64-2.08-1.6-.24-.62-.41-1.26-.67-1.88-1-2.37-2.64-3.82-5.21-3.82-.17,0-.33,0-.51.02-.21.01-.43.02-.64.02-1.44,0-2.78-.36-3.98-1.16-.6-.4-1.17-.57-1.72-.57-.67,0-1.33.25-1.99.68-1.63,1.05-3.4,1.33-5.21,1.33-.64,0-1.28-.03-1.93-.08-.66-.05-1.33-.23-1.98-.23-.1,0-.19,0-.28.01-.26.02-.51.04-.76.04-3.27,0-5.35-2.01-7.17-4.55-.37-.52-.81-1-1.24-1.49.56,1.08,1.13,2.15,1.64,3.25.07.16-.18.47-.32.73.01,0,.02,0,.03,0l-.07.07s0,0,0,0l.07-.07c1.54,2.16,3.94,2.42,6.27,2.7,1.89.22,3.81.13,5.71.24.29.02.58.03.87.03,1.72,0,3.36-.32,4.95-1.12.5-.25,1.21-.49,1.79-.49.23,0,.43.04.6.12,2.11,1.11,4.31,1.25,6.62,1.38,3,.16,5.25,4.77,3.74,7.36-1.44,2.48-2.34,5.01-.87,7.81.76,1.44-.08,2.41-1.1,3.15-1.31.95-1.45,2.13-1.06,3.53.56,2.01,1.23,4,1.65,6.05.34,1.63.83,3.1,2.04,4.29.46.45.78,1.04,1.13,1.53-1.19,1.89-2.47,2.78-4.2,2.78-.78,0-1.66-.18-2.67-.53-1.49-.52-2.93-1.2-4.72-1.94,2.66,2.02,4.86,3.03,7.02,3.03,1.86,0,3.7-.74,5.78-2.21.45,1.07.99,2.05,1.26,3.09.6,2.3,1.13,4.62,1.56,6.95.32,1.77.56,3.58.6,5.38.06,3.22-.38,6.48-.02,9.66.47,4.21-3.47,8.9-7.14,9.57-3.17.58-6.26,1.55-9.39,2.33-.43.11-.88.13-1.15.17-2.19-3.14-4.25-6.08-6.38-9.12,1.21-1.4,2.3-2.65,3.69-4.26-1.16-.49-2-.78-2.8-1.19-1.73-.89-3.93-.91-5.14-2.75-.18.33-.35.65-.53.98-.44-.26-1.17-.45-1.27-.8-.37-1.32-.52-2.69-.76-4.04.18-.08.35-.15.53-.23.64,1.02,1.28,2.04,1.92,3.06-1.02-4.05-2.19-6.67-3.44-7.46.2,3.01.4,5.88.58,8.6-.23.12-.46.15-.68.15-.2,0-.4-.03-.59-.06-.19-.03-.38-.06-.56-.06-.41,0-.77.16-1.04.83.45.27.88.63,1.38.8,1.86.62,2.74,1.87,2.81,3.83.07,1.99.24,3.97.38,5.96.04.61.12,1.21.18,1.81.17.06.35.13.52.19.67-.95,1.35-1.9,2.02-2.85.69-.55,1.38-1.1,2.29-1.82,2.01,3.39,4.19,6.33,4.94,10.02-.27.22-.48.4-.7.57-2.29,1.82-2.36,2.03-1.1,4.76.48,1.04,1.06,2.02,1.55,3.05,1.7,3.61,3.62,7.16,3.57,11.32-.03,2.57-.05,5.14-.1,7.7-.08,4.24-2.75,6.76-6.02,8.73-.59.36-1.11.52-1.58.52-.9,0-1.65-.61-2.46-1.7-.9-1.21-1.83-2.51-3.05-3.35-2.64-1.82-5.48-3.37-8.23-5.03,1.49,2.35,4,3.35,6.25,4.66,1.82,1.06,3.45,2.25,4.43,4.48-.14.01-.27.02-.4.02-2.1,0-3.34-1.72-5.07-2.12,1.73,1.11,3.48,2.2,5.2,3.35.76.51,1.71,1,2.12,1.75,4.13,7.39,8.36,14.76,10.66,22.96,1.18,4.21,3.17,7.67,6.54,10.4.51.41.81,1.08,1.58,2.13-1.4,0-2.59.06-3.69.06-.8,0-1.55-.03-2.29-.13-.74-.11-1.5-.99-2-1.69-1.51-2.12-2.89-4.34-4.33-6.52-.15.09-.31.18-.46.28.48.95.97,1.91,1.46,2.87-.36.12-.65.22-1.08.37.92.64,1.91,1.02,2.41,1.74.52.76.52,1.87.86,2.79.15.43.59.74.84,1.14.4.64.82,1.29,1.09,1.99,1.72,4.42,3.44,8.84,5.08,13.29,1.85,5.02,4.37,9.7,7.1,14.27.72,1.21,1.57,2.44,2.64,3.34,4.3,3.64,8.17,7.68,11.77,12,.98,1.17,2.23,2.12,3.35,3.17.21-.22.42-.45.63-.67-1.13-.97-2.36-1.85-3.39-2.92-3.82-3.97-7.6-7.98-11.35-12.01-1.1-1.17-2.27-2.34-3.09-3.69-4.4-7.25-7.88-14.95-10.64-22.97-.56-1.63-1.06-3.27-1.69-5.21,1.61.36,2.7.61,3.8.86-.02-.02-.04-.04-.06-.06.81.43,1.62,1.17,2.43,1.18,2.43.02,3.7,1.5,4.93,3.24.76,1.08,1.61,2.1,2.49,3.1.39.44.92.74,1.67,1.32.16-1.6.28-2.8.4-4,.43-.61.96-.95,1.61-.95.26,0,.53.05.83.16-.87-.63-1.48-1.39-1.29-2.55-.01,0-.03,0-.04,0,.45-.94.89-1.88,1.47-3.09.98,1.29,1.74,2.3,2.51,3.31-.01-.19.03-.41-.05-.56-.63-1.17-1.66-2.29-1.81-3.51-.16-1.25.54-2.61.92-4.16-.61.16-1.13.24-1.6.43-2.25.88-4.49,1.77-6.72,2.68-.55.22-1.05.32-1.51.32-1.61,0-2.71-1.23-3.68-2.56-1.07-1.45-1.88-3.09-2.88-4.59-.26-.39-.82-.94-1.13-.94-.02,0-.04,0-.06,0-.25.07-.46.1-.65.1-1.17,0-1.22-1.19-1.51-2.03-.71-2.07-1.07-4.28-1.99-6.24-2.73-5.85-5.66-11.61-8.5-17.41-.31-.64-.56-1.31-.85-1.99,5.65-1.62,9.26-6.07,9.03-11.83-.07-1.71.13-3.44-.02-5.14-.19-2.06-.32-4.21-1.01-6.13-1.2-3.29-2.81-6.43-4.25-9.64-.43-.96-.94-1.91.07-2.86.55-.52,1.09-.79,1.64-.79.51,0,1.02.23,1.54.71.01.01.03.01.05.01.11,0,.35-.13.66-.23.13-.79.27-1.66.44-2.75,3.08-.76,6.11-1.48,9.14-2.25,5.4-1.37,7.25-2.98,7.79-7.99.5-4.7.12-9.49.05-14.24-.02-1.13-.32-2.26-.53-3.37-.24-1.21-.5-2.42-.8-3.62-.6-2.46-.48-5.16-2.32-7.23.58-2.48,1.24-4.95,1.74-7.45.47-2.37-.16-4.53-1.65-6.43-.47-.6-.95-1.19-1.45-1.76-.84-.95-1.19-1.88-.33-3.06,1.27-1.74,1.33-3.69.84-5.73-.19-.78-.16-1.61-.25-2.61,1.22.06,2.15.1,3.09.16,2.18.14,4.35.34,6.53.43.25.01.48.02.71.02,5.07,0,5.76-2.63,4.86-6.88-.55-2.62-.93-5.28-1.39-7.92M1852.65,216.58c0-1.17.67-2.46,2.09-4.3.36,1.21.59,2.32.59,3.38,0,1.36-.38,2.62-1.31,3.85-.9-1.07-1.36-1.96-1.36-2.93M1851.18,225.89c0-1.24.77-2.02,2.67-3.43,2.84,1.96,4.14,4.46,4.15,7.49,0,2.14-.64,4.54-1.85,7.21-1.5-.88-2.25-1.96-2.63-3.42-.43-1.65-.98-3.28-1.57-4.88-.48-1.32-.76-2.23-.76-2.98M1831.34,261.55h.03c1.24.01,1.91.83,2.58,1.62,0,0,0,0,.01.01.02.02.04.05.06.07.04-.06.08-.13.12-.21.17-.31.35-.7.43-.7,0,0,0,0,0,0h0c.94.27,1.86.65,3.36,1.21-.02,0-.03.02-.05.03-.01,0-.03.01-.04.02,0,0-.02.01-.03.02-.06.04-.12.08-.17.12-.05.04-.1.09-.15.13-.03.03-.05.05-.08.08-.6.66-.73,1.66-1.45,1.68h-.02s-.07,0-.1,0c-.24-.03-.53-.15-.91-.4-.02-.01-.03-.02-.05-.04-.15,0-.34.04-.51.05-.07,0-.14.01-.2.01,0,0-.01,0-.02,0-.02,0-.05,0-.07,0-.02,0-.04,0-.06,0,0,0-.01,0-.02,0-.04,0-.07-.02-.1-.04-.01,0-.03-.02-.04-.03-1.13-1.05-2.19-2.18-3.49-3.51.02,0,.04-.01.07-.02h0c.06-.01.11-.03.16-.04.26-.05.49-.08.71-.08h.03M1830.79,263.28h0c1.61,1.54,2.72,2.61,3.86,3.71-.59,1.12-1.06,2.01-1.53,2.89.02,0,.03,0,.04,0l-.08.09s.03-.05.04-.08c-.44.09-.88.18-1.51.3-.26-2.13-.5-4.14-.83-6.9M1862.3,356.25c-.18,0-.35-.03-.48-.12-1.55-1.03-2.98-2.24-4.82-3.65,2.44-.78,4.43-1.43,6.54-2.1,1.53,2.06-.14,3.89-.04,5.73-.39.03-.83.15-1.2.15M1861.25,361.08c-2.82-2.09-4.37-4.86-5.97-7.57.15-.17.3-.33.45-.5,2,1.33,3.99,2.66,6,3.98,1.01.66.74,1.62.66,2.54-.35.48-.7.96-1.13,1.56M1850.5,354.59c-.23-.24-.47-.48-.7-.72.97-.47,1.75-.73,2.43-.73,1.06,0,1.86.64,2.72,2.08-1.7-.24-3.08-.44-4.45-.63"/>
</svg>